<?xml version="1.0" standalone="no"?>
<!DOCTYPE svg PUBLIC "-//W3C//DTD SVG 20010904//EN"
 "http://www.w3.org/TR/2001/REC-SVG-20010904/DTD/svg10.dtd">
<svg version="1.0" xmlns="http://www.w3.org/2000/svg"
 width="1248.000000pt" height="1248.000000pt" viewBox="0 0 1248.000000 1248.000000"
 preserveAspectRatio="xMidYMid meet">
<metadata>
Created by potrace 1.14, written by Peter Selinger 2001-2017
</metadata>
<g transform="translate(0.000000,1248.000000) scale(0.100000,-0.100000)"
fill="#000000" stroke="none">
<path d="M5686 12003 c-4 -5 -77 -14 -211 -28 -16 -1 -30 -3 -30 -4 0 -1 -20
-4 -45 -6 -48 -5 -90 -11 -130 -19 -14 -3 -81 -15 -150 -26 -69 -12 -171 -33
-228 -46 -56 -13 -113 -26 -125 -28 -157 -33 -608 -186 -827 -281 -144 -63
-150 -65 -156 -64 -4 0 -10 -3 -13 -8 -6 -8 -22 -16 -136 -71 -33 -15 -85 -42
-115 -59 -30 -16 -84 -45 -120 -64 -36 -18 -67 -36 -70 -39 -4 -6 -85 -55
-143 -87 -12 -7 -29 -17 -37 -22 -8 -6 -67 -45 -130 -87 -120 -81 -423 -304
-440 -325 -3 -3 -27 -25 -55 -49 -145 -123 -207 -181 -390 -364 -187 -188
-224 -227 -332 -352 -100 -116 -228 -280 -308 -394 -86 -122 -145 -211 -145
-219 0 -5 -4 -11 -8 -13 -8 -3 -113 -172 -167 -270 -132 -237 -290 -577 -360
-775 -20 -54 -38 -105 -42 -113 -3 -8 -7 -17 -8 -20 0 -3 -19 -61 -42 -130
-43 -132 -82 -260 -88 -292 -2 -11 -7 -28 -10 -38 -8 -25 -9 -32 -50 -230 -35
-168 -42 -204 -50 -260 -2 -14 -6 -43 -10 -65 -17 -104 -25 -167 -31 -245 -3
-47 -10 -105 -14 -129 -14 -75 -9 -1001 5 -1151 15 -150 37 -322 49 -385 2
-11 7 -38 10 -60 5 -34 66 -336 81 -400 3 -11 7 -29 10 -40 2 -11 11 -45 20
-75 9 -30 18 -62 20 -70 9 -34 74 -238 89 -277 8 -24 12 -43 8 -43 -4 0 -2 -4
4 -8 6 -4 27 -55 47 -114 20 -59 47 -131 61 -160 13 -29 37 -84 54 -123 78
-184 223 -461 347 -665 55 -90 177 -277 202 -310 6 -8 48 -64 94 -125 45 -60
109 -144 143 -185 33 -41 65 -81 71 -88 5 -7 22 -25 36 -40 14 -15 59 -65 100
-111 126 -143 444 -451 583 -566 26 -22 59 -51 73 -64 77 -74 488 -366 628
-446 28 -16 52 -32 55 -35 3 -4 30 -20 60 -37 30 -16 93 -51 139 -77 167 -95
573 -281 704 -322 31 -10 57 -21 57 -24 0 -4 6 -7 13 -7 6 -1 80 -23 162 -50
195 -65 245 -81 275 -87 14 -3 50 -12 80 -20 30 -9 91 -23 135 -31 44 -9 87
-19 95 -22 8 -3 19 -5 23 -4 5 1 27 -4 50 -10 23 -7 53 -13 67 -15 14 -1 39
-5 55 -9 70 -14 183 -31 360 -51 109 -13 256 -17 670 -20 292 -1 564 2 605 7
409 49 429 51 500 65 14 3 39 7 55 10 52 9 69 13 90 18 11 2 74 16 140 31 66
14 129 28 140 30 55 13 471 143 495 156 8 5 47 19 85 33 39 13 84 30 100 37
17 6 35 13 40 15 20 5 223 97 355 161 347 169 716 403 1033 656 54 43 112 91
127 105 16 15 48 43 72 62 49 40 266 250 403 390 82 84 128 134 239 260 58 66
213 265 284 365 39 55 75 105 79 110 23 29 233 362 233 369 0 1 26 49 58 107
53 96 212 414 212 425 0 3 11 30 25 60 14 30 25 57 25 60 0 3 11 29 24 57 12
29 36 90 51 137 15 47 31 90 35 95 7 10 22 63 18 67 -1 2 4 13 11 26 6 12 28
75 47 140 19 64 38 124 41 132 3 8 6 18 5 22 -1 4 3 19 8 33 5 14 12 36 14 48
3 12 7 31 10 42 9 33 75 357 82 400 4 22 8 49 10 60 1 11 5 29 7 40 3 11 8 47
12 80 4 33 9 76 11 95 3 19 10 76 16 125 17 139 19 1100 3 1250 -8 66 -16 143
-20 170 -3 28 -8 70 -12 95 -3 24 -7 54 -8 65 -1 11 -3 20 -5 20 -1 0 -3 11
-5 25 -4 37 -14 94 -25 147 -6 25 -9 52 -6 59 3 8 1 16 -3 19 -5 2 -12 25 -15
50 -4 24 -18 91 -32 147 -14 57 -27 110 -29 118 -23 97 -172 554 -205 625 -5
11 -32 76 -61 145 -68 165 -230 485 -333 657 -87 146 -214 345 -225 353 -4 3
-30 39 -59 81 -50 72 -213 281 -270 345 -15 17 -63 72 -107 122 -44 51 -161
172 -260 270 -166 164 -238 230 -370 342 -27 24 -52 46 -55 49 -3 3 -32 26
-65 51 -33 25 -66 51 -74 58 -7 7 -83 63 -169 124 -250 178 -533 347 -777 464
-55 27 -103 52 -106 57 -3 5 -8 8 -10 7 -2 -1 -22 5 -44 15 -140 60 -213 91
-230 95 -5 2 -32 13 -60 25 -27 12 -88 35 -135 50 -47 15 -89 30 -95 34 -5 3
-16 7 -22 8 -7 2 -19 4 -25 6 -7 1 -17 5 -23 9 -5 3 -28 11 -50 18 -22 6 -62
18 -90 26 -43 13 -168 47 -215 59 -8 2 -15 4 -15 5 0 1 -7 3 -15 5 -8 2 -26 6
-40 9 -14 3 -36 8 -50 11 -43 10 -222 45 -290 56 -61 10 -78 13 -155 25 -33 5
-90 13 -145 19 -19 2 -75 10 -125 16 -90 12 -1178 23 -1189 12z m809 -238
c130 -7 198 -11 260 -19 28 -3 77 -8 110 -12 74 -7 371 -51 405 -59 14 -4 34
-8 45 -9 11 -2 20 -4 20 -6 0 -1 9 -3 20 -5 11 -2 34 -6 50 -8 17 -3 37 -8 45
-11 8 -3 26 -7 40 -10 33 -5 149 -35 180 -45 14 -5 59 -19 100 -31 41 -12 92
-28 114 -36 21 -8 41 -12 44 -10 3 3 10 2 16 -3 6 -5 45 -19 86 -31 41 -13 79
-27 84 -32 6 -4 20 -8 33 -8 13 0 23 -5 23 -10 0 -6 3 -9 8 -8 8 3 132 -44
207 -77 235 -106 434 -202 538 -263 54 -31 110 -63 125 -71 15 -8 29 -17 32
-20 3 -3 21 -14 40 -25 60 -32 290 -186 410 -275 325 -239 601 -492 870 -797
90 -103 232 -278 281 -349 18 -27 39 -55 44 -61 17 -20 39 -50 50 -67 6 -9 31
-47 56 -84 297 -439 564 -994 694 -1443 3 -8 16 -53 31 -100 23 -75 70 -248
79 -290 2 -8 4 -15 5 -15 1 0 3 -10 6 -22 9 -49 11 -59 17 -73 11 -28 71 -401
83 -520 2 -19 6 -60 10 -90 27 -251 35 -553 22 -795 -14 -237 -25 -351 -58
-565 -11 -74 -23 -154 -27 -178 -3 -23 -9 -45 -14 -48 -4 -2 -6 -10 -3 -18 3
-7 0 -33 -6 -57 -6 -24 -12 -53 -14 -64 -2 -11 -5 -21 -6 -22 -1 -2 -3 -11 -4
-20 -1 -10 -5 -24 -10 -31 -4 -7 -5 -16 -2 -19 3 -3 2 -11 -3 -17 -4 -6 -11
-27 -15 -46 -8 -44 -62 -231 -83 -285 -8 -22 -17 -49 -19 -59 -6 -33 -77 -241
-83 -246 -3 -3 -7 -12 -9 -20 -5 -24 -50 -140 -80 -204 -15 -32 -27 -62 -28
-65 -2 -16 -197 -416 -213 -436 -5 -5 -21 -32 -36 -60 -52 -96 -110 -190 -117
-193 -5 -2 -8 -8 -8 -14 0 -18 -156 -250 -286 -423 -19 -26 -149 -189 -177
-223 -219 -261 -520 -553 -790 -767 -21 -16 -44 -35 -50 -41 -29 -26 -309
-224 -317 -224 -4 0 -10 -4 -12 -9 -4 -11 -298 -189 -439 -266 -100 -54 -210
-109 -328 -162 -31 -14 -89 -41 -129 -59 -40 -19 -84 -37 -98 -40 -13 -3 -27
-10 -30 -15 -3 -5 -10 -7 -15 -4 -5 4 -9 1 -9 -5 0 -6 -5 -8 -11 -4 -6 3 -14
2 -18 -3 -5 -9 -438 -157 -491 -168 -53 -12 -156 -41 -160 -45 -3 -3 -12 -5
-20 -5 -8 1 -21 -3 -28 -8 -7 -6 -15 -7 -19 -4 -3 4 -12 2 -20 -4 -7 -6 -13
-9 -13 -6 0 3 -12 2 -27 -3 -16 -5 -93 -21 -173 -35 -198 -36 -190 -34 -240
-40 -25 -3 -58 -7 -75 -10 -16 -3 -48 -7 -70 -10 -22 -2 -58 -7 -80 -9 -203
-24 -422 -34 -675 -30 -124 2 -236 6 -250 9 -14 2 -61 7 -105 10 -44 3 -98 8
-120 11 -22 2 -58 7 -80 9 -129 15 -518 81 -555 95 -3 1 -13 2 -22 1 -10 -1
-18 2 -18 7 0 6 -8 8 -19 5 -10 -3 -22 0 -25 6 -4 6 -15 11 -26 11 -22 0 -273
71 -280 79 -3 3 -18 7 -35 9 -16 2 -32 8 -33 13 -2 5 -8 7 -12 4 -5 -3 -17 -1
-27 4 -10 6 -63 24 -118 42 -104 33 -330 122 -400 157 -22 11 -78 37 -125 58
-204 93 -708 377 -718 405 -2 5 -8 9 -13 9 -12 0 -289 200 -363 261 -17 14
-87 73 -156 130 -152 127 -452 424 -579 574 -51 61 -103 121 -115 135 -12 14
-33 41 -46 60 -14 19 -32 42 -40 50 -8 8 -42 54 -75 100 -32 47 -62 87 -65 90
-15 12 -137 201 -236 366 -92 154 -226 407 -277 524 -8 19 -30 67 -47 105 -48
103 -105 251 -160 415 -81 242 -139 442 -175 605 -36 168 -87 489 -101 645
-37 401 -37 684 0 1085 11 117 62 454 82 545 8 36 16 74 19 85 27 136 99 389
170 596 25 74 47 141 50 149 9 35 88 225 128 310 12 25 21 48 19 53 -1 4 3 7
10 7 6 0 9 2 6 6 -6 5 168 364 180 374 8 5 19 25 67 113 18 32 38 66 46 75 8
9 15 20 16 25 5 20 126 206 216 332 108 150 152 207 227 295 12 14 31 38 43
53 90 116 295 333 483 507 214 199 539 447 808 617 64 40 119 73 121 73 2 0
49 27 104 60 56 33 136 77 178 97 43 21 80 41 81 45 2 5 8 8 13 8 9 0 67 26
214 94 28 13 54 24 58 24 4 0 18 7 30 14 12 8 63 29 112 48 50 18 101 37 115
43 14 6 27 11 30 12 3 1 12 5 20 8 20 8 242 80 256 83 6 1 56 16 110 32 98 31
271 76 329 86 29 6 53 11 98 21 12 3 34 7 49 10 15 2 35 6 45 9 21 6 376 55
448 62 28 2 82 6 120 8 39 2 70 5 70 6 0 1 56 4 124 6 69 2 126 6 128 8 4 4
159 0 348 -9z"/>
<path d="M5368 11465 c-2 -2 -21 -5 -43 -8 -45 -6 -159 -25 -190 -31 -11 -2
-49 -7 -84 -11 l-63 -7 6 -52 c7 -59 12 -90 31 -206 8 -47 17 -105 20 -130 3
-25 9 -67 15 -95 5 -27 12 -70 15 -95 3 -25 8 -56 10 -70 2 -14 7 -43 10 -65
5 -35 17 -116 30 -195 2 -14 6 -43 10 -66 19 -133 17 -129 60 -130 22 0 69 5
105 12 36 6 90 15 120 18 30 4 81 13 113 20 31 7 57 12 57 10 0 -2 35 15 79
37 175 88 263 245 264 470 0 284 -150 517 -373 579 -40 11 -184 22 -192 15z
m106 -269 c109 -20 183 -132 193 -293 7 -102 -7 -158 -54 -212 -41 -48 -75
-66 -166 -85 -50 -10 -70 -11 -72 -2 -6 14 -13 55 -25 136 -18 126 -21 146
-35 230 -8 47 -17 108 -20 135 -4 28 -8 57 -11 67 -4 13 7 18 58 25 66 10 70
10 132 -1z"/>
<path d="M7327 11443 c-3 -5 -26 -75 -52 -158 -26 -82 -55 -175 -66 -205 -10
-30 -53 -163 -95 -295 -42 -132 -87 -274 -100 -315 -19 -59 -21 -77 -11 -86
11 -10 141 -53 207 -69 25 -6 26 -3 104 242 43 136 81 251 85 255 3 4 6 -121
6 -277 l-1 -285 99 -31 c54 -17 100 -29 101 -27 1 1 18 26 37 53 20 28 91 129
159 225 111 157 153 215 138 185 -3 -5 -36 -104 -72 -220 -37 -115 -73 -226
-81 -246 -7 -19 -10 -41 -6 -48 7 -10 208 -81 231 -81 7 0 37 91 180 540 39
124 74 232 77 240 3 8 7 20 8 25 2 6 19 60 39 121 31 97 42 144 34 144 -2 0
-57 18 -122 40 -66 22 -127 40 -136 40 -14 0 -68 -70 -317 -408 -7 -9 -37 -49
-66 -88 -30 -39 -59 -79 -65 -90 -15 -25 -13 -67 -26 495 -3 134 -7 245 -8
246 -5 5 -260 85 -269 85 -4 0 -10 -3 -12 -7z"/>
<path d="M3961 11027 c-52 -24 -96 -47 -98 -53 -3 -8 160 -395 256 -609 10
-22 51 -116 91 -210 40 -93 79 -176 85 -183 9 -10 52 5 221 79 115 50 226 98
247 107 21 8 36 20 33 26 -53 128 -82 189 -92 193 -11 4 -68 -18 -213 -84 -29
-13 -54 -23 -55 -21 -1 2 -49 111 -106 243 -118 275 -136 317 -158 365 -9 19
-30 69 -47 110 -23 53 -37 76 -51 77 -10 1 -61 -17 -113 -40z"/>
<path d="M8982 10761 c-16 -10 -592 -910 -592 -924 0 -15 191 -137 202 -130
10 5 101 145 338 516 251 392 262 410 247 423 -33 32 -185 121 -195 115z"/>
<path d="M3029 10415 c-116 -31 -232 -122 -283 -222 -123 -244 -13 -575 248
-744 99 -65 185 -91 296 -91 167 1 317 96 390 247 39 80 50 134 45 230 -6 153
-74 296 -199 420 -142 141 -335 203 -497 160z m239 -263 c65 -32 143 -114 182
-192 60 -120 47 -226 -37 -300 -126 -111 -296 -60 -420 126 -107 161 -60 341
101 389 55 17 110 9 174 -23z"/>
<path d="M9682 10137 c-102 -97 -345 -333 -559 -543 l-154 -150 79 -82 c43
-46 89 -84 100 -87 22 -4 39 11 287 254 72 70 135 130 142 134 7 5 6 -8 -4
-41 -8 -26 -30 -101 -49 -167 -20 -66 -56 -187 -81 -270 -25 -82 -46 -157 -48
-165 -3 -19 154 -180 176 -180 9 0 42 24 72 53 55 53 454 439 640 620 l101 98
-75 77 c-41 42 -78 80 -84 84 -27 21 -58 0 -205 -143 -248 -241 -263 -255
-256 -234 4 11 18 56 31 100 13 44 55 185 94 314 58 192 69 237 58 249 -35 44
-144 150 -160 155 -14 5 -40 -13 -105 -76z"/>
<path d="M6454 9885 c-4 -8 -4 -24 -1 -36 5 -17 3 -18 -9 -8 -12 10 -13 9 -8
-5 3 -9 11 -16 18 -16 6 0 3 -5 -6 -11 -9 -5 -15 -16 -12 -24 4 -8 10 -13 14
-10 4 3 4 -11 0 -29 -5 -22 -3 -39 3 -45 8 -8 6 -11 -7 -11 -9 0 -14 -5 -11
-10 4 -6 11 -7 17 -4 7 4 8 2 4 -4 -4 -7 -1 -12 6 -12 8 0 7 -4 -4 -11 -14 -8
-15 -15 -7 -35 8 -22 7 -25 -5 -21 -10 4 -13 1 -9 -8 3 -8 9 -12 14 -9 14 8
10 -3 -7 -20 -8 -9 -11 -16 -6 -16 13 0 14 -78 0 -103 -10 -20 -10 -21 6 -8
15 13 16 12 9 -10 -5 -13 -7 -35 -6 -49 1 -14 4 -39 6 -57 2 -17 0 -30 -4 -27
-4 2 -10 -3 -13 -12 -3 -8 -2 -12 4 -9 6 4 10 -5 10 -20 0 -18 -4 -24 -12 -19
-7 4 -4 -3 7 -16 19 -22 19 -23 1 -16 -14 5 -16 3 -9 -6 6 -7 10 -26 9 -43 -1
-16 2 -39 7 -49 8 -15 6 -18 -7 -13 -14 6 -14 3 1 -20 10 -15 13 -24 7 -20 -7
4 -15 0 -18 -9 -3 -8 -2 -12 4 -9 6 4 10 -5 10 -20 0 -18 -4 -24 -12 -19 -7 4
-4 -3 7 -16 19 -22 19 -23 1 -16 -14 5 -16 3 -9 -6 6 -7 10 -26 9 -43 -1 -16
2 -39 7 -49 8 -15 6 -18 -7 -13 -14 6 -14 3 1 -20 10 -15 13 -24 7 -20 -7 4
-15 0 -18 -9 -3 -8 -2 -12 4 -9 6 4 10 -5 10 -20 0 -18 -4 -24 -12 -19 -7 4
-4 -3 7 -16 19 -22 19 -23 1 -16 -14 5 -16 3 -9 -6 13 -18 14 -58 1 -82 -9
-18 -9 -19 3 -9 11 9 14 7 14 -13 0 -13 -3 -24 -7 -24 -8 0 -4 -27 5 -36 4 -4
-1 -12 -10 -19 -13 -9 -13 -14 -3 -20 9 -6 11 -4 5 5 -5 9 -4 11 3 6 9 -5 7
-16 -5 -39 -12 -24 -12 -29 -2 -20 11 9 14 7 14 -13 0 -13 -3 -24 -7 -24 -8 0
-4 -27 5 -36 4 -4 -1 -12 -10 -19 -13 -9 -13 -14 -3 -20 9 -6 11 -4 5 5 -5 9
-4 11 3 6 9 -5 7 -16 -5 -39 -12 -24 -12 -29 -2 -20 11 9 14 7 14 -13 0 -13
-3 -24 -7 -24 -8 0 -4 -27 5 -36 4 -4 -1 -12 -10 -19 -13 -9 -13 -14 -3 -20 9
-6 11 -4 5 5 -5 9 -4 11 3 6 9 -5 7 -16 -5 -39 -12 -24 -12 -29 -2 -20 11 9
14 7 14 -13 0 -13 -3 -24 -7 -24 -8 0 -4 -27 5 -36 4 -4 -1 -12 -10 -19 -13
-9 -13 -14 -3 -20 9 -6 11 -4 5 5 -5 9 -4 11 3 6 9 -5 7 -16 -5 -39 -12 -24
-12 -29 -2 -20 11 9 14 7 14 -13 0 -13 -3 -24 -7 -24 -8 0 -4 -27 5 -36 4 -4
-1 -12 -10 -19 -13 -9 -13 -14 -3 -20 9 -6 11 -4 5 5 -5 9 -4 11 3 6 9 -5 7
-16 -5 -39 -12 -24 -12 -29 -2 -20 11 9 14 7 14 -13 0 -13 -3 -24 -7 -24 -8 0
-4 -27 5 -36 4 -4 -1 -12 -10 -19 -13 -9 -13 -14 -3 -20 9 -6 11 -4 5 5 -5 9
-4 11 3 6 9 -5 7 -16 -5 -39 -12 -24 -12 -29 -2 -20 11 9 14 7 14 -13 0 -13
-3 -24 -7 -24 -8 0 -4 -27 5 -36 4 -4 -1 -12 -10 -19 -13 -9 -13 -14 -3 -20 9
-6 11 -4 5 5 -5 9 -4 11 3 6 9 -5 7 -16 -5 -39 -12 -24 -12 -29 -2 -20 11 9
14 7 14 -13 0 -13 -3 -24 -7 -24 -8 0 -4 -27 5 -36 4 -4 -1 -12 -10 -19 -13
-9 -13 -14 -3 -20 9 -6 11 -4 5 5 -5 9 -4 11 3 6 9 -5 7 -16 -5 -39 -12 -24
-12 -29 -2 -20 11 9 14 7 14 -13 0 -13 -3 -24 -7 -24 -8 0 -4 -27 5 -36 4 -4
-1 -12 -10 -19 -13 -9 -13 -14 -3 -20 9 -6 11 -4 5 5 -5 9 -4 11 3 6 9 -5 7
-16 -5 -39 -12 -24 -12 -29 -2 -20 11 9 14 7 14 -13 0 -13 -3 -24 -7 -24 -8 0
-4 -27 5 -36 4 -4 -1 -12 -10 -19 -13 -9 -13 -14 -3 -20 9 -6 11 -4 5 5 -5 9
-4 11 3 6 9 -5 7 -16 -5 -39 -12 -24 -12 -29 -2 -20 11 9 14 7 14 -13 0 -13
-3 -24 -7 -24 -8 0 -4 -27 5 -36 4 -4 -1 -12 -10 -19 -13 -9 -13 -14 -3 -20 9
-6 11 -4 5 5 -5 9 -4 11 3 6 9 -5 7 -16 -5 -39 -12 -24 -12 -29 -2 -20 11 9
14 7 14 -13 0 -13 -3 -24 -7 -24 -8 0 -4 -27 5 -36 4 -4 -1 -12 -10 -19 -13
-9 -13 -14 -3 -20 9 -6 11 -4 5 5 -5 9 -4 11 3 6 9 -5 7 -16 -5 -39 -12 -24
-12 -29 -2 -20 11 9 14 7 14 -13 0 -13 -3 -24 -7 -24 -8 0 -4 -27 5 -36 4 -4
-1 -12 -10 -19 -13 -9 -13 -14 -3 -20 9 -6 11 -4 5 5 -5 9 -4 11 3 6 9 -5 7
-16 -5 -39 -12 -24 -12 -29 -2 -20 11 9 14 7 14 -13 0 -13 -3 -24 -7 -24 -8 0
-4 -27 5 -36 4 -4 -1 -12 -10 -19 -13 -9 -13 -14 -3 -20 9 -6 11 -4 5 5 -5 8
-4 11 2 7 11 -7 10 -43 -2 -54 -4 -5 -5 -2 0 6 5 9 4 12 -3 7 -9 -5 -8 -14 4
-31 12 -18 12 -24 2 -28 -11 -3 -11 -8 0 -26 10 -18 10 -21 -5 -21 -17 -1 -17
-1 0 -11 13 -8 15 -15 8 -28 -7 -12 -6 -22 1 -29 8 -8 9 -12 1 -12 -6 0 -14
-7 -17 -16 -5 -14 -4 -15 9 -4 9 7 18 10 22 6 3 -3 2 -6 -4 -6 -6 0 -13 -9
-16 -20 -3 -11 0 -20 6 -20 6 0 2 -7 -9 -16 -10 -8 -13 -13 -6 -9 6 3 12 3 13
-2 4 -48 3 -80 -3 -76 -5 2 -8 -3 -8 -12 0 -9 5 -13 10 -10 6 3 10 1 10 -4 0
-6 -8 -11 -17 -11 -17 -1 -17 -1 0 -11 9 -6 15 -14 13 -18 -10 -16 -14 -61 -5
-56 16 10 10 -7 -8 -20 -13 -9 -13 -14 -3 -20 9 -6 11 -4 5 5 -5 9 -4 11 4 6
6 -4 8 -13 3 -22 -4 -7 -5 -41 -2 -74 5 -48 3 -60 -10 -64 -8 -2 -4 -5 10 -6
23 -1 23 -2 5 -10 -11 -5 -14 -9 -6 -9 11 -1 11 -4 2 -15 -10 -11 -10 -20 -1
-37 10 -18 10 -21 -2 -16 -8 3 -15 -1 -15 -9 0 -7 4 -11 8 -9 4 3 7 -11 7 -30
0 -24 -4 -33 -11 -28 -7 3 -3 -3 7 -15 12 -14 14 -22 7 -22 -7 0 -9 -5 -6 -11
10 -16 11 -119 2 -119 -5 0 -5 -5 -2 -11 4 -6 8 -23 9 -39 2 -21 -2 -27 -14
-22 -11 4 -10 0 4 -16 12 -14 14 -22 7 -22 -7 0 -9 -5 -5 -11 4 -7 7 -29 8
-50 1 -28 -3 -39 -14 -40 -10 0 -8 -3 5 -9 13 -6 15 -9 5 -9 -13 -1 -13 -2 0
-11 13 -9 13 -10 0 -10 -13 0 -13 -1 0 -10 8 -5 10 -10 5 -10 -7 0 -9 -15 -7
-36 3 -27 1 -35 -8 -29 -7 4 -5 -4 4 -18 16 -23 16 -26 1 -41 -9 -9 -12 -16
-6 -16 5 0 10 -19 10 -42 0 -24 1 -57 3 -74 3 -25 1 -31 -12 -26 -12 4 -11 1
3 -15 16 -19 17 -21 1 -27 -11 -4 -13 -10 -6 -19 5 -6 9 -25 8 -42 -1 -16 2
-39 7 -49 8 -15 6 -18 -7 -13 -15 6 -15 5 -3 -13 10 -14 12 -32 7 -60 -4 -21
-4 -43 -1 -49 10 -15 0 -91 -11 -91 -5 0 -7 -4 -3 -10 3 -5 13 -6 22 -3 15 6
16 5 3 -9 -8 -9 -18 -14 -22 -11 -4 2 -5 -3 -2 -11 3 -8 13 -12 22 -10 13 4
13 3 -2 -6 -15 -10 -16 -14 -5 -21 12 -7 11 -9 -1 -9 -13 0 -13 -1 0 -10 10
-6 11 -10 3 -10 -7 0 -13 -5 -13 -11 0 -5 4 -8 8 -5 12 7 2 -97 -11 -113 -9
-12 -9 -13 1 -7 7 4 12 2 12 -6 0 -8 -6 -20 -12 -27 -8 -9 -8 -11 -2 -8 8 5
13 -5 16 -27 3 -27 1 -33 -12 -28 -12 4 -11 1 3 -15 16 -19 17 -21 1 -27 -11
-4 -13 -10 -6 -19 5 -6 9 -25 8 -42 -1 -16 2 -39 7 -49 8 -15 6 -18 -7 -13
-14 6 -14 3 1 -20 10 -15 13 -24 7 -20 -7 4 -15 0 -18 -9 -3 -8 -2 -12 4 -9 6
4 10 -5 10 -20 0 -18 -4 -24 -12 -19 -8 5 -8 1 1 -10 16 -19 16 -99 0 -104 -5
-2 -7 -8 -4 -12 3 -5 13 -6 22 -3 15 6 16 5 3 -9 -8 -9 -18 -14 -22 -11 -4 2
-5 -3 -2 -11 3 -8 13 -12 22 -10 13 4 13 3 -2 -6 -15 -10 -16 -14 -5 -21 12
-7 11 -9 -1 -9 -13 0 -13 -1 0 -10 10 -6 11 -10 3 -10 -7 0 -13 -5 -13 -11 0
-5 4 -8 8 -5 4 2 7 -8 6 -22 -1 -15 -3 -44 -3 -65 -1 -25 -5 -36 -12 -31 -6 3
-4 -5 5 -19 13 -20 14 -26 4 -30 -10 -3 -10 -9 -2 -23 9 -15 8 -21 -4 -30 -12
-9 -12 -13 -2 -19 9 -6 11 -4 5 5 -5 9 -4 11 3 6 9 -5 7 -16 -5 -39 -12 -24
-12 -29 -2 -20 11 9 14 7 14 -13 0 -13 -3 -24 -7 -24 -8 0 -4 -27 5 -36 4 -4
-1 -12 -10 -19 -13 -9 -13 -14 -3 -20 9 -6 11 -4 5 5 -5 9 -4 11 3 6 9 -5 7
-16 -5 -39 -13 -26 -13 -30 -1 -20 12 11 14 9 14 -10 -1 -12 -5 -25 -11 -29
-7 -5 -6 -13 1 -25 9 -14 8 -20 -4 -29 -12 -9 -12 -13 -2 -19 9 -6 11 -4 5 5
-5 9 -4 11 4 6 6 -4 9 -11 6 -16 -3 -5 -6 -25 -7 -44 -1 -22 -5 -33 -12 -30
-6 3 -2 -2 8 -10 11 -9 14 -16 8 -16 -7 0 -12 -5 -12 -11 0 -5 4 -8 8 -5 4 3
7 -10 5 -27 -1 -18 -3 -46 -4 -64 -1 -19 -7 -30 -13 -27 -6 3 -2 -2 8 -10 11
-9 14 -16 8 -16 -7 0 -12 -5 -12 -11 0 -5 4 -8 8 -5 4 2 7 -8 6 -22 -1 -15 -3
-35 -3 -45 -1 -12 -5 -16 -13 -11 -10 6 -10 4 0 -8 17 -21 25 -61 10 -52 -8 5
-9 1 -4 -11 4 -11 1 -22 -6 -27 -8 -6 -4 -7 11 -3 20 6 23 4 17 -10 -6 -15 -4
-16 10 -4 24 20 47 21 40 1 -5 -15 -5 -15 7 0 11 14 16 15 27 5 10 -9 11 -9 6
0 -4 7 -2 13 3 13 6 0 11 -6 11 -12 0 -10 3 -9 9 1 7 11 9 11 14 0 4 -11 6
-11 6 -1 1 7 6 10 11 7 6 -3 10 -2 10 3 0 5 14 6 31 4 24 -4 30 -2 24 8 -6 9
-4 11 6 4 19 -11 58 -13 65 -2 3 4 14 4 24 -2 15 -8 21 -6 29 7 6 10 11 12 11
6 0 -7 5 -13 11 -13 5 0 7 6 3 13 -5 8 -2 8 9 -2 12 -9 17 -10 17 -2 0 7 4 10
9 6 5 -3 12 -1 16 5 4 7 13 6 27 -1 18 -10 20 -9 14 6 -6 16 -5 17 19 1 23
-15 26 -15 31 -1 5 13 9 13 22 3 13 -11 14 -11 7 1 -6 11 -2 13 18 9 15 -3 24
-2 22 2 -3 5 2 11 11 14 8 3 12 2 9 -3 -3 -5 -1 -12 5 -16 5 -3 10 2 11 12 0
10 3 13 5 6 4 -8 11 -7 24 5 11 9 16 20 11 26 -4 6 -7 41 -6 79 1 43 -2 67 -9
67 -6 0 -5 4 3 9 13 8 13 12 0 27 -8 10 -9 15 -3 11 8 -5 11 22 10 93 0 61 -4
100 -11 100 -5 0 -4 4 4 9 13 8 13 12 0 27 -8 10 -9 15 -3 11 8 -5 11 22 10
93 0 61 -4 100 -11 100 -5 0 -4 4 4 9 13 8 13 12 0 27 -8 10 -9 15 -3 11 8 -5
11 17 11 73 -1 46 -5 80 -11 80 -5 0 -1 7 10 16 10 8 14 13 8 10 -7 -3 -15 1
-18 10 -3 8 -2 12 4 9 6 -3 10 3 10 14 0 12 -6 21 -12 21 -9 0 -9 3 1 9 13 8
13 12 0 27 -9 11 -9 15 -1 10 8 -5 12 0 12 13 0 12 -5 21 -12 21 -6 0 -3 7 8
16 10 8 14 13 8 10 -7 -3 -15 1 -18 10 -3 8 -2 12 4 9 6 -3 10 3 10 14 0 12
-6 21 -12 21 -9 0 -9 3 1 9 13 8 13 12 0 27 -9 11 -9 15 -1 10 8 -5 12 0 12
13 0 12 -5 21 -12 21 -6 0 -3 7 8 16 10 8 14 13 8 10 -7 -3 -15 1 -18 10 -3 8
-2 12 4 9 6 -3 10 3 10 14 0 12 -6 21 -12 21 -9 0 -9 3 1 9 13 8 13 12 0 27
-9 11 -9 15 -1 10 8 -5 12 0 12 13 0 12 -5 21 -12 21 -6 0 -3 7 8 16 10 8 14
13 8 10 -7 -3 -15 1 -18 10 -3 8 -2 12 4 9 6 -3 10 3 10 14 0 12 -6 21 -12 21
-9 0 -9 3 1 9 13 8 13 12 0 27 -8 10 -9 15 -2 11 9 -6 12 11 10 73 -1 45 -6
80 -12 80 -5 0 -4 4 4 9 13 8 13 12 0 27 -8 10 -9 15 -3 11 8 -5 11 22 10 93
0 61 -4 100 -11 100 -5 0 -4 4 4 9 13 8 13 12 0 27 -8 10 -9 15 -3 11 8 -5 11
22 10 93 0 61 -4 100 -11 100 -5 0 -4 4 4 9 13 8 13 12 0 27 -8 10 -9 15 -3
11 8 -5 11 22 10 93 0 61 -4 100 -11 100 -5 0 -4 4 4 9 13 8 13 12 0 27 -8 11
-9 15 -2 10 10 -5 12 14 10 83 -1 49 -6 93 -10 97 -4 4 0 15 9 25 12 13 12 19
3 25 -8 5 -10 3 -4 -6 5 -9 4 -11 -4 -6 -8 5 -9 12 -2 20 6 7 8 25 5 40 -3 16
-1 25 5 22 5 -3 7 3 4 14 -3 11 -10 17 -16 13 -6 -4 -7 -1 -2 8 15 23 16 101
2 92 -9 -5 -9 -3 -1 8 15 20 18 82 3 73 -8 -5 -9 -3 -3 7 13 21 14 39 2 39 -7
0 -6 5 1 14 8 10 9 16 2 21 -14 8 -9 38 8 59 12 14 12 16 0 11 -10 -4 -15 2
-16 17 -2 18 0 20 7 8 13 -20 13 -4 0 20 -7 13 -7 21 0 25 5 3 10 11 10 16 0
6 -4 8 -8 5 -4 -2 -8 4 -8 14 0 10 3 17 6 15 4 -2 7 9 7 25 0 16 -5 27 -10 23
-5 -3 -4 5 3 17 8 15 8 20 1 16 -6 -4 -11 -2 -11 3 0 6 5 11 10 11 6 0 10 7
10 16 0 8 -4 13 -8 10 -5 -3 -9 1 -9 9 0 8 4 12 9 9 4 -3 8 4 8 16 0 14 -4 19
-12 14 -7 -4 -5 2 5 13 11 13 14 23 8 27 -5 4 -8 18 -5 32 3 17 1 23 -7 19 -8
-6 -8 -2 0 13 7 14 8 23 1 27 -7 4 -7 12 0 25 13 25 13 33 -2 24 -7 -5 -8 -3
-2 7 13 22 14 43 1 51 -9 6 -9 8 0 8 8 0 10 29 8 100 -2 55 1 98 5 95 5 -3 5
7 1 22 -8 33 -8 44 2 60 4 6 2 15 -4 19 -8 5 -9 3 -4 -6 5 -9 4 -11 -4 -6 -9
6 -9 11 0 23 10 12 10 16 -2 24 -8 5 -9 9 -2 9 8 0 10 16 7 51 -3 36 -1 48 7
43 8 -5 9 -3 3 7 -11 19 -12 61 -2 76 6 7 4 14 -3 19 -8 5 -9 3 -4 -6 5 -9 4
-11 -4 -6 -9 6 -9 11 0 23 10 12 10 16 -2 24 -8 5 -9 9 -2 9 8 0 10 16 7 51
-3 36 -1 48 7 43 8 -5 9 -3 3 7 -11 19 -12 61 -2 76 6 7 4 14 -3 19 -8 5 -9 3
-4 -6 5 -9 4 -11 -4 -6 -9 6 -9 11 0 23 10 12 10 16 -2 24 -8 5 -9 9 -2 9 8 0
10 16 7 51 -3 38 -1 49 8 43 10 -5 10 -4 1 6 -6 7 -9 19 -6 28 5 11 2 13 -8 7
-11 -6 -11 -5 -2 5 6 7 9 19 6 28 -5 11 -3 13 8 7 8 -5 5 2 -6 15 -11 13 -15
20 -8 17 8 -5 11 5 9 35 -1 24 1 51 6 60 7 14 5 16 -9 11 -14 -5 -16 -4 -7 8
6 8 9 33 8 57 -3 31 0 41 9 35 9 -5 9 -3 0 9 -7 8 -10 18 -6 21 3 4 0 13 -6
21 -7 8 -8 17 -2 20 5 3 9 22 9 41 0 24 -4 33 -11 28 -9 -5 -9 -3 -1 8 6 8 9
33 8 57 -2 31 0 41 9 36 9 -5 9 -4 0 6 -6 7 -9 19 -6 28 5 11 3 13 -8 7 -12
-8 -12 -6 0 8 7 9 10 17 6 17 -4 0 -2 6 4 14 9 11 9 16 0 22 -8 5 -9 3 -4 -6
5 -9 4 -11 -4 -6 -8 5 -9 12 -3 19 6 7 8 40 7 75 -2 34 0 60 5 57 10 -6 1 36
-12 52 -5 7 -5 14 1 17 5 3 9 22 9 41 0 24 -4 33 -11 28 -9 -5 -9 -3 -1 8 12
17 12 58 0 78 -6 10 -5 12 2 7 8 -5 12 2 12 19 0 14 -4 24 -8 21 -4 -2 -8 4
-8 15 0 10 4 19 8 19 4 0 8 -6 8 -12 0 -9 4 -8 10 2 8 12 10 11 10 -7 0 -12 4
-23 10 -25 5 -1 11 -16 12 -31 2 -22 7 -27 21 -23 15 4 16 2 6 -10 -9 -11 -9
-14 0 -14 7 0 10 -4 7 -9 -3 -5 4 -20 15 -35 11 -14 17 -31 13 -37 -4 -7 -3
-9 3 -6 12 8 26 -20 17 -34 -3 -5 0 -8 8 -7 7 2 12 -3 10 -10 -1 -7 5 -15 13
-18 12 -5 12 -10 3 -27 -11 -21 -10 -21 7 -7 17 14 18 13 12 -2 -4 -11 -2 -17
5 -15 7 1 13 -5 14 -13 0 -8 2 -21 2 -28 1 -8 7 -10 15 -6 8 5 8 2 -2 -9 -7
-9 -11 -18 -7 -18 3 -1 12 -2 19 -3 6 -1 11 -9 9 -19 -2 -9 4 -20 13 -23 9 -4
14 -13 11 -20 -3 -7 0 -16 6 -20 7 -5 8 -2 3 7 -5 8 -4 11 1 6 5 -5 9 -16 9
-25 0 -9 6 -16 14 -14 12 3 12 1 0 -14 -12 -15 -12 -17 0 -9 11 6 13 4 8 -7
-3 -10 1 -18 13 -21 14 -4 17 -11 13 -27 -4 -16 -3 -21 5 -16 12 7 15 -1 15
-37 0 -13 3 -15 12 -7 10 8 15 8 21 -1 4 -8 3 -9 -4 -5 -7 4 -12 2 -12 -4 0
-6 8 -14 17 -17 15 -6 15 -7 -3 -14 -18 -7 -18 -8 0 -8 12 -1 16 -6 12 -16 -3
-8 -2 -14 2 -12 4 1 7 -2 7 -6 0 -5 8 -13 18 -18 9 -6 17 -15 17 -20 0 -6 -6
-7 -12 -3 -9 5 -9 2 1 -9 7 -9 20 -17 28 -17 8 0 11 -5 8 -10 -4 -6 -12 -7
-18 -3 -7 4 -6 0 2 -10 7 -9 16 -15 20 -13 4 3 8 -5 8 -16 1 -12 7 -24 14 -28
6 -4 8 -13 4 -20 -4 -7 1 -14 15 -17 16 -4 21 -12 17 -29 -3 -17 0 -21 13 -19
12 2 16 -4 14 -27 -1 -16 0 -27 4 -24 9 10 34 -33 26 -46 -4 -6 -3 -8 3 -5 6
4 14 0 17 -9 9 -23 8 -26 -6 -18 -8 4 -10 3 -5 -2 5 -5 13 -9 18 -9 5 0 9 -4
8 -9 0 -5 5 -12 12 -17 7 -4 14 -15 15 -25 2 -9 8 -20 14 -24 9 -6 9 -9 -1
-13 -10 -4 -8 -6 4 -6 14 -1 17 -6 12 -23 -6 -16 -4 -20 8 -15 12 4 14 2 10
-10 -5 -12 -3 -14 8 -8 11 6 12 5 2 -5 -10 -11 -8 -17 8 -31 11 -9 21 -26 22
-37 0 -12 5 -18 9 -16 4 3 8 -4 8 -15 0 -12 5 -21 10 -21 6 0 10 -9 10 -20 0
-11 9 -25 20 -32 11 -7 20 -22 20 -33 0 -17 -2 -18 -11 -5 -9 13 -10 13 -6 0
2 -8 12 -14 22 -12 14 3 16 -1 12 -17 -3 -14 0 -21 9 -21 8 0 14 -9 14 -20 0
-11 5 -20 11 -20 5 0 15 -13 20 -30 7 -18 16 -27 22 -23 7 3 9 3 5 -2 -4 -4
-3 -14 4 -22 8 -10 8 -13 -3 -10 -8 2 -11 2 -6 0 4 -3 7 -11 7 -18 0 -8 10
-21 22 -29 12 -9 18 -16 13 -16 -5 0 -4 -5 2 -11 6 -6 9 -18 6 -27 -4 -9 -2
-13 3 -9 6 3 16 2 24 -4 9 -5 10 -9 3 -9 -13 0 -12 -25 2 -37 4 -4 5 -1 1 7
-4 8 -1 6 8 -4 8 -10 13 -23 10 -27 -3 -5 2 -9 10 -9 9 0 15 -3 15 -7 -4 -22
2 -43 10 -39 5 4 7 -2 4 -13 -3 -11 3 -24 15 -32 10 -8 18 -22 16 -32 -1 -9 2
-15 7 -11 5 3 9 0 9 -6 0 -6 4 -9 8 -6 5 3 9 -1 9 -9 0 -8 -4 -12 -9 -9 -4 3
-8 1 -8 -4 0 -5 10 -12 21 -15 15 -4 20 -11 16 -21 -4 -10 -1 -16 7 -16 15 0
16 -16 3 -37 -5 -8 0 -9 15 -5 21 5 22 4 8 -13 -8 -10 -10 -16 -4 -12 13 8 27
-19 19 -34 -4 -5 1 -6 10 -3 11 5 14 2 8 -12 -5 -13 -3 -15 7 -9 10 6 12 4 7
-8 -4 -12 -1 -17 10 -17 13 0 14 -2 2 -17 -10 -11 -10 -14 -1 -9 7 4 12 1 12
-8 0 -9 5 -16 11 -16 6 0 9 -9 6 -20 -3 -13 0 -20 9 -20 8 0 17 -13 21 -30 3
-17 10 -33 14 -36 5 -3 6 -11 3 -17 -4 -7 -4 -9 1 -5 5 5 15 -2 23 -13 12 -18
13 -23 1 -31 -11 -8 -10 -8 5 -4 13 5 17 2 12 -9 -3 -8 0 -14 7 -12 7 1 12 -5
12 -13 0 -8 6 -19 13 -23 7 -5 10 -12 7 -16 -2 -5 4 -11 14 -14 15 -3 18 -1
14 11 -5 11 -2 14 10 9 12 -4 14 -2 10 10 -5 12 -3 14 7 8 9 -6 12 -4 8 7 -4
8 2 20 13 27 11 6 17 16 14 21 -3 5 4 11 15 15 11 4 18 11 15 16 -4 5 2 9 12
9 15 0 16 2 3 10 -10 6 -11 10 -3 10 7 0 12 6 10 13 -1 6 4 11 10 10 7 -2 12
3 10 10 -1 6 4 11 12 9 11 -2 12 0 3 11 -10 11 -9 17 5 28 17 13 17 13 3 -6
-14 -18 -13 -19 1 -8 9 7 19 10 23 6 4 -4 4 0 1 9 -3 8 1 23 10 32 9 9 14 16
10 16 -3 0 -1 9 5 20 6 11 15 20 21 20 6 0 7 -5 3 -12 -5 -7 -3 -8 5 -3 9 5 9
11 3 17 -7 7 -2 18 14 33 14 13 25 26 25 29 -3 20 0 26 8 21 5 -3 12 -1 16 5
3 5 0 10 -7 11 -7 0 -3 5 10 11 14 7 21 17 17 26 -4 10 0 12 11 8 15 -6 15 -4
3 11 -9 11 -10 14 -1 9 7 -4 12 -1 12 8 0 9 7 16 16 16 8 0 12 5 9 10 -3 6 -1
10 4 10 6 0 10 6 8 13 -1 6 6 11 16 11 13 -2 15 1 7 11 -8 9 -6 14 5 19 8 3
15 12 15 20 0 8 15 29 33 47 17 18 23 26 12 19 -11 -7 -3 3 19 23 21 19 36 39
32 45 -3 5 1 13 10 16 9 4 14 13 10 22 -3 8 -2 12 4 9 6 -3 14 5 20 19 5 14
14 26 20 26 6 0 8 5 4 12 -5 8 -2 9 11 4 16 -6 16 -4 4 11 -12 15 -12 16 3 10
13 -4 16 -1 13 14 -2 11 0 17 5 14 5 -3 11 3 15 14 8 25 41 62 48 54 4 -3 4 4
2 17 -4 19 -2 20 12 8 15 -12 15 -11 4 9 -10 20 -9 22 5 16 12 -4 15 -3 10 5
-4 7 -1 15 8 18 9 3 16 10 16 14 0 14 62 110 71 110 5 0 9 7 9 15 0 8 7 15 16
15 8 0 12 5 9 10 -3 6 0 10 7 10 11 0 10 2 0 9 -11 7 -11 9 2 14 8 3 17 1 20
-6 3 -7 3 -2 0 11 -3 13 -1 22 6 22 6 0 10 8 8 18 -2 12 3 17 20 16 18 -1 20
1 11 12 -8 10 -8 14 0 14 6 0 11 7 11 16 0 9 5 12 12 8 8 -5 9 -2 5 9 -4 10
-2 16 5 14 7 -1 17 8 22 20 12 26 38 41 29 16 -5 -11 -3 -14 6 -8 10 6 11 3 2
-14 -8 -15 -9 -21 -1 -21 6 0 8 -5 5 -10 -4 -6 -1 -9 6 -8 6 2 14 -3 17 -11 2
-8 0 -11 -5 -8 -5 3 -10 0 -10 -8 0 -8 5 -12 10 -8 5 3 6 -4 2 -17 -4 -14 -3
-20 3 -16 5 3 13 -1 16 -10 4 -10 2 -13 -7 -8 -6 4 -3 -2 7 -14 13 -15 15 -22
6 -22 -9 0 -8 -5 4 -19 10 -10 18 -33 18 -50 1 -17 5 -31 10 -31 4 0 8 -5 8
-11 0 -5 -6 -7 -12 -3 -10 6 -10 4 0 -7 6 -7 12 -21 12 -32 0 -10 4 -16 8 -13
4 2 8 -4 8 -14 0 -10 -3 -17 -6 -15 -3 2 -6 -5 -6 -15 0 -10 5 -16 10 -13 5 4
7 -3 4 -15 -5 -16 -2 -22 10 -22 12 0 13 -3 5 -8 -8 -5 -9 -13 -3 -22 6 -9 4
-20 -3 -29 -9 -12 -9 -13 1 -7 7 4 12 1 12 -9 0 -10 -5 -14 -12 -10 -7 4 -6 1
2 -7 16 -14 19 -45 6 -66 -4 -7 -1 -14 8 -18 9 -3 13 -11 9 -17 -10 -16 -11
-47 -2 -52 4 -3 7 -25 7 -50 0 -24 3 -49 7 -55 3 -5 1 -10 -6 -10 -8 0 -9 -3
0 -13 6 -8 8 -17 4 -21 -4 -4 -1 -11 7 -16 8 -6 10 -10 4 -10 -6 0 -10 -33
-10 -90 1 -54 -3 -90 -9 -90 -5 0 -3 -5 5 -10 8 -5 10 -10 3 -10 -13 0 -12
-18 1 -39 6 -10 5 -12 -2 -7 -7 4 -12 2 -12 -3 0 -6 5 -11 11 -11 5 0 7 -5 4
-10 -4 -6 -12 -7 -18 -3 -9 5 -9 3 -1 -8 14 -18 14 -49 0 -49 -6 0 -4 -5 4
-10 9 -6 11 -10 3 -10 -7 0 -10 -7 -6 -17 5 -12 3 -14 -8 -8 -12 7 -12 6 -1
-7 7 -9 9 -19 4 -22 -5 -3 -8 -19 -6 -36 3 -22 0 -29 -9 -24 -9 5 -9 4 1 -7
15 -16 16 -33 2 -24 -7 4 -9 -3 -6 -19 3 -14 0 -26 -6 -26 -5 0 -7 -7 -4 -16
3 -8 2 -12 -4 -9 -6 3 -10 1 -10 -4 0 -6 4 -11 8 -11 4 0 8 -9 8 -19 0 -11 -5
-17 -10 -14 -5 4 -7 -1 -3 -10 4 -12 1 -17 -11 -17 -13 0 -14 -2 -3 -9 9 -6
10 -10 2 -16 -9 -5 -9 -10 0 -21 9 -11 8 -15 -3 -19 -9 -4 -14 -16 -12 -31 1
-13 -1 -22 -6 -19 -4 3 -10 -2 -14 -10 -3 -8 0 -15 7 -15 8 0 8 -3 -2 -9 -11
-7 -11 -9 0 -14 11 -4 11 -6 1 -6 -7 -1 -10 -6 -7 -11 3 -6 -1 -13 -9 -16 -9
-3 -16 -10 -16 -16 0 -5 4 -6 10 -3 6 3 7 -1 4 -9 -3 -9 -10 -13 -15 -10 -5 3
-6 -2 -3 -10 4 -11 0 -16 -12 -16 -17 0 -16 -1 2 -16 10 -8 14 -13 8 -10 -7 3
-15 -1 -18 -10 -4 -10 -2 -13 7 -8 6 4 3 -2 -7 -14 -11 -12 -16 -25 -13 -28 4
-4 -3 -20 -15 -37 -13 -19 -16 -28 -7 -23 7 4 3 -2 -11 -14 -14 -12 -19 -19
-12 -15 7 4 12 0 12 -10 0 -9 -4 -13 -10 -10 -5 3 -10 -3 -10 -15 0 -14 -4
-19 -12 -14 -8 5 -7 0 2 -11 9 -11 10 -16 3 -11 -8 4 -13 2 -13 -8 0 -8 -6
-17 -12 -19 -10 -4 -10 -6 0 -6 6 -1 12 -6 12 -12 0 -5 -4 -8 -9 -5 -7 5 -20
-13 -23 -34 -1 -3 -8 -11 -17 -18 -12 -10 -12 -12 -1 -6 13 7 13 5 2 -9 -8 -9
-10 -22 -6 -29 6 -10 4 -10 -9 0 -14 12 -16 11 -16 -5 -1 -37 -4 -52 -11 -48
-3 2 -12 0 -20 -6 -12 -7 -12 -9 -1 -9 10 0 11 -3 2 -13 -6 -8 -7 -18 -3 -22
4 -5 0 -6 -9 -3 -11 4 -15 0 -15 -16 1 -13 -5 -21 -14 -20 -9 1 -17 -7 -17
-18 -1 -11 3 -16 10 -12 7 3 1 -3 -12 -14 -15 -12 -21 -24 -16 -32 6 -10 4
-12 -9 -7 -13 5 -17 3 -13 -6 3 -7 -4 -19 -15 -26 -11 -7 -17 -19 -14 -27 5
-12 -5 -18 -25 -16 -4 1 -5 -8 -2 -18 4 -14 0 -20 -11 -20 -9 0 -16 -7 -16
-15 0 -9 -6 -12 -17 -9 -15 5 -16 4 -3 -5 13 -9 12 -13 -8 -31 -12 -12 -19
-27 -16 -33 4 -7 4 -9 0 -5 -10 8 -46 -22 -46 -39 0 -7 -5 -13 -11 -13 -5 0
-7 5 -3 12 4 7 3 8 -5 4 -6 -4 -9 -12 -6 -17 4 -5 0 -9 -7 -9 -9 0 -9 -3 2
-10 11 -7 11 -10 2 -10 -7 0 -10 -4 -7 -10 3 -5 0 -7 -8 -4 -9 3 -17 -3 -20
-16 -4 -14 -10 -19 -18 -14 -7 4 -10 3 -5 -4 3 -6 0 -17 -8 -25 -8 -8 -12 -17
-9 -20 3 -4 -4 -5 -15 -2 -12 2 -25 -1 -28 -7 -5 -7 -2 -8 6 -3 8 5 11 3 8 -6
-3 -8 -11 -13 -17 -12 -6 2 -10 -3 -8 -10 1 -6 -3 -11 -9 -10 -7 1 -15 -9 -18
-23 -4 -14 -11 -22 -16 -19 -6 3 -10 1 -10 -5 0 -6 -4 -9 -9 -5 -5 3 -12 1
-16 -5 -3 -5 -1 -10 5 -10 7 0 6 -5 -2 -14 -9 -9 -17 -11 -25 -4 -8 6 -11 4
-9 -8 3 -20 -49 -69 -63 -60 -5 4 -13 1 -17 -5 -4 -8 -3 -9 4 -5 7 4 12 2 12
-3 0 -10 -14 -15 -32 -12 -5 0 -8 -4 -8 -9 0 -13 -37 -50 -50 -50 -5 0 -10 -7
-10 -16 0 -13 -3 -14 -14 -5 -11 9 -17 8 -28 -8 -8 -12 -18 -18 -23 -13 -5 4
-5 1 0 -7 6 -11 12 -9 26 10 10 13 19 19 19 13 0 -16 -34 -44 -53 -44 -9 0
-19 -5 -23 -12 -5 -7 -3 -8 6 -3 9 5 11 4 6 -3 -4 -7 -13 -12 -20 -12 -8 0
-13 -10 -12 -23 1 -12 -2 -30 -6 -39 -6 -12 -5 -18 3 -18 8 0 8 -4 -1 -15 -7
-8 -9 -15 -5 -15 4 0 2 -7 -5 -15 -11 -13 -10 -14 1 -10 10 4 14 -3 12 -27 -1
-18 -2 -33 -3 -33 -1 0 -3 -8 -5 -17 -2 -10 2 -18 8 -18 8 0 8 -3 2 -8 -14
-10 -17 -32 -4 -32 5 0 7 -6 3 -12 -12 -19 -12 -48 -1 -48 5 0 4 -7 -3 -15 -9
-11 -9 -15 -1 -15 7 0 9 -5 5 -12 -11 -17 -14 -58 -5 -58 4 0 8 -7 8 -15 0 -8
-4 -12 -9 -9 -4 3 -8 1 -8 -5 0 -5 5 -13 10 -16 6 -4 7 -12 3 -18 -11 -19 -12
-57 -1 -57 6 0 5 -7 -3 -17 -12 -15 -12 -16 1 -8 13 8 13 7 1 -8 -7 -9 -10
-17 -5 -17 10 0 10 -62 0 -78 -3 -6 -2 -13 4 -17 6 -4 7 -11 4 -17 -21 -34 -1
-82 27 -67 9 4 20 5 24 1 5 -4 5 -1 1 6 -4 6 -2 12 4 12 6 0 8 5 4 13 -6 9 -4
9 8 -1 13 -10 17 -10 22 3 3 8 12 15 20 15 7 0 17 7 20 16 4 9 9 14 13 10 4
-3 23 8 42 26 19 18 29 26 23 16 -10 -12 -10 -18 -1 -24 7 -4 10 -3 6 2 -3 5
0 16 7 24 17 22 61 57 52 43 -5 -9 -2 -11 8 -7 9 3 13 11 9 17 -4 6 0 8 11 4
9 -4 15 -3 12 1 -2 4 -1 14 5 22 7 13 9 13 9 1 0 -9 7 -6 20 9 12 14 25 20 36
16 14 -5 15 -4 4 9 -10 12 -10 15 0 15 7 0 18 7 24 14 6 8 18 16 26 18 8 2 19
11 25 22 5 10 13 17 16 15 4 -2 15 6 25 19 11 13 28 24 39 26 13 2 19 10 17
21 -2 9 1 14 7 11 5 -4 22 5 37 19 15 14 23 25 18 26 -5 0 1 4 14 10 15 6 21
13 16 21 -6 10 -3 9 9 0 14 -12 16 -11 12 6 -3 16 1 20 16 17 11 -2 17 0 14 6
-4 5 -1 9 5 9 6 0 8 5 4 12 -5 7 -2 9 9 5 11 -4 15 -1 12 13 -2 11 1 23 7 26
7 4 8 2 4 -4 -4 -7 -2 -12 4 -12 6 0 8 -5 4 -12 -4 -6 -3 -8 4 -4 6 3 9 15 7
25 -4 22 21 36 29 18 4 -7 5 0 3 15 -3 19 0 25 9 21 8 -3 17 2 20 11 3 9 10
14 14 11 4 -2 16 5 26 17 11 12 13 18 7 14 -7 -4 -13 -3 -13 3 0 14 35 32 45
23 5 -4 5 -2 2 4 -10 17 32 66 50 60 9 -4 11 -2 7 6 -4 6 1 17 11 25 11 7 16
13 12 13 -4 0 3 10 15 22 13 13 27 22 31 20 5 -1 6 1 3 6 -7 11 42 78 55 75 5
-2 9 3 9 11 0 8 7 17 16 20 8 3 12 10 9 16 -3 5 -1 10 4 10 6 0 10 3 10 8 -3
19 2 25 11 12 8 -12 10 -10 10 9 0 18 4 22 18 16 13 -5 14 -3 5 6 -12 12 -7
39 9 39 5 0 6 -6 2 -12 -4 -8 -3 -10 2 -5 5 5 10 13 10 18 1 5 2 14 3 19 0 6
13 23 29 37 15 15 21 23 14 19 -11 -7 -11 -4 -1 12 7 11 19 18 26 15 9 -3 11
0 8 10 -4 8 1 21 9 30 19 19 21 31 4 21 -8 -4 -10 -3 -5 2 5 5 14 9 20 9 7 1
11 6 10 13 -2 7 2 12 8 12 5 0 7 5 4 10 -3 6 0 13 9 16 9 3 12 12 9 21 -4 11
-2 14 5 9 7 -4 12 -1 12 9 0 9 4 13 10 10 6 -3 7 1 4 9 -7 19 12 22 20 4 3 -7
3 -3 0 10 -4 16 0 28 13 38 10 9 11 12 3 8 -13 -7 -13 -5 -1 9 7 9 10 24 7 33
-5 14 -4 15 9 4 13 -11 15 -9 15 13 0 14 10 32 23 41 20 15 20 17 2 12 -19 -6
-19 -5 -2 8 9 7 17 19 17 25 0 7 5 9 10 6 6 -4 10 -3 9 2 -4 23 2 53 10 49 13
-8 21 20 9 32 -6 6 -6 12 2 17 7 4 16 1 21 -6 6 -9 6 -1 2 20 -4 24 -3 32 5
27 8 -5 10 -2 6 8 -3 9 -1 16 6 16 6 0 9 4 6 9 -4 5 0 12 6 14 10 4 9 8 -2 16
-11 8 -12 11 -2 11 7 0 10 4 7 10 -3 5 0 7 8 4 10 -3 14 2 13 18 -1 13 4 29
11 36 7 7 13 22 13 33 0 11 7 22 15 25 12 5 13 10 4 20 -8 10 -8 14 -1 14 6 0
9 6 6 14 -3 8 0 17 5 21 6 3 9 10 6 15 -3 5 0 12 6 16 8 5 9 3 4 -6 -5 -8 -4
-11 3 -6 6 4 9 13 6 21 -4 8 -11 12 -17 8 -6 -3 -7 -1 -3 6 4 6 12 9 17 6 8
-6 13 15 10 43 -1 6 2 12 8 12 10 0 9 19 -2 37 -4 6 -2 15 4 19 8 4 9 3 5 -4
-4 -7 -2 -12 3 -12 6 0 11 6 12 13 2 50 8 80 18 90 6 6 11 28 11 50 0 23 4 36
10 32 6 -3 10 -1 10 4 0 6 -5 11 -11 11 -8 0 -8 4 0 14 6 7 8 22 4 31 -5 14
-3 16 7 10 10 -6 12 -4 7 8 -3 9 -2 19 4 23 7 4 6 10 -1 19 -8 9 -8 15 0 20 6
3 8 10 5 15 -3 5 -1 11 5 15 6 4 8 11 4 16 -3 5 0 17 7 25 10 13 10 17 0 24
-9 5 -10 10 -2 14 6 4 11 12 11 17 0 6 -6 7 -12 3 -9 -5 -9 -3 1 9 7 9 11 26
8 37 -3 11 -2 20 2 20 4 0 7 10 8 23 1 12 4 44 7 70 5 34 3 46 -5 41 -6 -3 -4
4 5 17 10 16 12 29 6 39 -5 9 -5 19 1 26 6 7 6 21 -1 38 -7 18 -6 26 1 26 7 0
6 6 -2 17 -10 11 -10 14 -1 9 15 -9 16 6 0 22 -9 9 -9 12 1 12 11 0 11 3 0 17
-8 9 -9 14 -3 10 13 -7 13 41 0 61 -4 7 -3 12 2 12 10 0 8 56 -3 83 -4 10 -3
17 4 17 8 0 9 6 3 18 -5 9 -8 25 -7 35 2 9 -2 17 -8 17 -8 0 -8 3 -2 8 11 8
16 52 5 52 -9 0 -6 32 5 49 5 10 4 12 -3 7 -12 -7 -16 4 -13 37 1 9 -3 17 -10
17 -8 0 -8 4 2 16 10 13 10 17 -2 25 -12 8 -12 10 1 19 11 7 12 12 3 18 -6 4
-10 19 -9 34 2 20 -1 25 -13 21 -13 -5 -14 -3 -3 8 14 16 16 33 2 24 -5 -3
-10 -1 -10 4 0 6 6 11 13 11 9 0 9 2 -1 9 -8 4 -13 11 -13 15 1 3 1 7 0 9 0 1
-2 16 -2 32 -1 17 -5 35 -10 42 -4 6 -4 19 0 29 4 11 3 15 -5 10 -7 -4 -10 1
-7 14 2 11 -1 20 -6 20 -6 0 -8 4 -4 9 3 5 1 12 -4 15 -5 3 -8 22 -6 41 3 25
-1 35 -11 35 -8 0 -14 5 -14 11 0 6 6 7 13 2 6 -4 4 6 -7 21 -10 16 -14 26 -8
22 6 -3 5 4 -1 18 -7 13 -14 23 -18 21 -3 -2 -6 2 -6 9 0 9 7 12 16 9 11 -4 9
0 -4 10 -16 14 -17 18 -6 26 11 7 9 10 -9 16 -18 6 -20 9 -9 16 12 7 12 9 0 9
-8 0 -11 7 -8 19 2 11 -3 28 -12 38 -9 10 -16 27 -16 38 0 11 -5 19 -11 18 -7
-1 -10 6 -7 17 3 11 0 20 -6 20 -6 0 -11 5 -11 11 0 5 4 8 8 5 5 -3 9 1 9 8 0
8 -6 12 -13 9 -6 -2 -15 1 -20 8 -5 8 -3 10 5 4 8 -4 7 2 -3 17 -9 14 -13 28
-9 31 3 4 2 7 -4 7 -9 0 -11 6 -15 49 -1 11 -5 18 -8 16 -3 -1 -11 3 -17 11
-9 9 -9 15 -2 20 7 4 2 16 -13 32 -13 14 -17 22 -9 17 9 -5 12 -4 7 3 -4 7
-15 12 -24 12 -15 0 -15 2 -2 10 12 7 12 10 1 10 -7 0 -11 6 -8 14 4 10 1 13
-8 10 -9 -4 -13 3 -11 25 2 26 0 28 -13 18 -12 -9 -13 -9 -7 1 4 7 2 12 -5 12
-8 0 -7 5 2 17 10 12 10 14 1 9 -7 -4 -15 -1 -18 8 -3 9 -11 13 -16 10 -6 -4
-5 3 1 15 12 21 5 27 -23 22 -5 -1 -3 6 4 16 8 10 10 15 6 11 -5 -4 -15 0 -22
10 -17 21 -18 36 -2 26 7 -4 8 -3 4 4 -4 7 -14 12 -22 12 -8 0 -14 7 -14 15 0
8 -5 15 -11 15 -8 0 -7 5 1 15 11 13 10 14 -5 9 -13 -5 -16 -4 -11 4 4 7 2 12
-3 12 -6 0 -11 7 -11 16 0 8 -4 13 -9 10 -5 -3 -15 9 -22 27 -7 17 -19 36 -26
40 -7 4 -13 15 -13 22 0 8 -5 15 -11 15 -6 0 -9 6 -6 14 6 16 -37 58 -49 48
-4 -4 -4 -2 0 5 3 6 -5 23 -18 36 -14 14 -22 27 -20 30 3 3 -4 11 -16 17 -13
7 -19 17 -16 26 3 9 1 12 -4 9 -6 -3 -10 2 -11 12 0 10 -3 13 -6 6 -2 -7 -9
-13 -14 -13 -6 0 -7 5 -3 12 5 7 3 8 -5 4 -7 -5 -10 -15 -7 -23 4 -8 1 -11 -5
-8 -6 4 -13 -3 -16 -15 -4 -14 -11 -19 -21 -15 -12 4 -13 3 -2 -10 9 -11 9
-15 1 -15 -6 0 -16 -11 -21 -25 -5 -14 -17 -25 -27 -25 -15 0 -16 -2 -3 -10
13 -9 7 -14 -12 -11 -5 0 -8 -6 -8 -14 0 -8 -4 -15 -9 -15 -5 0 -12 -7 -15
-16 -6 -15 -4 -15 11 -3 16 13 17 12 4 -4 -8 -10 -20 -16 -26 -13 -8 3 -11 -2
-8 -14 3 -10 -4 -23 -16 -32 -12 -8 -18 -18 -14 -21 3 -4 1 -7 -5 -7 -7 0 -12
-7 -12 -16 0 -8 -4 -12 -10 -9 -5 3 -10 -1 -10 -10 0 -10 -5 -13 -12 -9 -7 4
-8 3 -4 -5 5 -7 -1 -20 -15 -32 -12 -10 -18 -19 -13 -19 5 -1 -2 -8 -16 -16
-15 -9 -18 -13 -6 -9 16 5 17 3 6 -10 -7 -8 -17 -12 -24 -8 -6 3 -8 3 -4 -2 4
-4 3 -14 -3 -22 -6 -7 -8 -13 -4 -13 4 0 2 -7 -5 -15 -7 -8 -17 -12 -23 -8 -6
4 -8 0 -4 -10 3 -9 0 -18 -9 -21 -9 -3 -12 -11 -8 -18 5 -8 2 -9 -9 -5 -9 3
-16 3 -15 -1 2 -13 -15 -47 -30 -58 -8 -6 -12 -16 -8 -22 4 -7 1 -12 -8 -12
-9 0 -15 -5 -13 -12 1 -7 -4 -13 -10 -14 -27 -3 -28 -5 -13 -14 8 -5 10 -10 4
-10 -7 0 -24 -17 -40 -37 -15 -21 -21 -33 -13 -28 8 6 7 3 -3 -7 -10 -9 -18
-21 -18 -26 0 -5 -7 -15 -15 -22 -8 -7 -12 -17 -8 -24 4 -6 0 -5 -9 2 -14 11
-16 10 -11 -7 3 -13 -2 -23 -16 -30 -12 -7 -21 -19 -21 -27 0 -9 -5 -12 -12
-8 -7 4 -8 3 -4 -4 4 -6 -7 -26 -24 -43 -32 -34 -38 -45 -17 -33 8 5 8 3 -2
-9 -7 -9 -17 -14 -22 -11 -5 3 -9 2 -8 -3 5 -20 -22 -65 -36 -60 -9 4 -12 1
-8 -9 3 -7 0 -14 -6 -14 -6 0 -8 -7 -4 -17 5 -12 2 -15 -9 -11 -10 4 -15 1
-14 -10 0 -9 -4 -17 -11 -17 -6 0 -15 -4 -20 -9 -5 -5 -2 -6 6 -1 9 5 12 3 9
-6 -3 -8 -11 -13 -17 -11 -7 1 -10 -1 -7 -6 3 -5 -2 -18 -10 -28 -9 -10 -12
-13 -8 -5 5 10 3 12 -5 7 -9 -6 -9 -11 1 -24 10 -12 10 -14 1 -8 -8 4 -13 2
-13 -4 0 -6 -3 -9 -7 -7 -5 2 -16 -4 -25 -15 -19 -19 -10 -26 8 -8 7 7 11 6
11 -4 0 -8 -4 -13 -8 -10 -4 2 -10 -4 -14 -15 -3 -11 -13 -25 -23 -33 -16 -12
-16 -11 -2 7 15 20 14 20 -8 1 -23 -20 -30 -32 -12 -21 6 3 10 2 10 -3 0 -6
-7 -13 -16 -16 -8 -3 -13 -10 -10 -15 3 -5 -3 -7 -13 -4 -12 3 -17 11 -14 19
3 8 0 14 -7 14 -6 0 -8 5 -4 12 4 6 1 16 -7 22 -8 6 -20 19 -28 29 -12 16 -12
17 5 11 10 -3 6 3 -11 15 -16 11 -24 21 -17 21 6 0 12 5 12 11 0 5 -4 7 -10 4
-5 -3 -10 1 -10 9 0 9 -4 16 -10 16 -5 0 -10 9 -10 20 0 11 -5 20 -11 20 -5 0
-7 5 -4 10 3 6 2 10 -2 10 -5 0 -14 9 -21 21 -8 12 -9 18 -3 15 7 -4 8 -1 5 8
-3 9 -10 13 -15 10 -5 -3 -9 7 -9 21 0 15 -4 24 -10 20 -5 -3 -10 1 -10 10 0
10 -5 13 -12 9 -10 -6 -10 -4 0 8 11 14 10 18 -5 30 -10 7 -19 20 -21 28 -2 8
-8 17 -13 18 -5 2 -9 12 -9 22 0 10 -5 22 -10 25 -6 4 -8 10 -5 15 3 5 0 12
-6 16 -8 5 -9 3 -4 -6 5 -9 4 -11 -3 -6 -7 4 -12 14 -12 22 0 9 -5 12 -11 8
-7 -4 -7 1 1 16 7 12 8 20 2 16 -5 -3 -16 2 -23 11 -11 13 -11 15 -1 9 11 -7
11 -4 1 12 -7 12 -17 19 -21 16 -4 -3 -5 2 -2 10 3 9 2 16 -4 16 -5 0 -13 7
-16 16 -5 12 -3 14 7 8 7 -5 5 -2 -5 8 -10 9 -18 23 -18 32 0 8 -5 18 -12 22
-7 5 -8 3 -3 -6 5 -9 4 -11 -4 -6 -9 6 -9 12 1 24 7 10 8 14 4 10 -12 -10 -39
29 -31 42 3 6 1 10 -5 10 -7 0 -10 7 -6 15 3 8 2 15 -2 15 -5 0 -17 7 -28 16
-10 8 -14 13 -7 10 7 -4 9 1 6 14 -3 11 -9 20 -14 20 -5 0 -9 7 -9 15 0 8 -4
15 -10 15 -5 0 -10 7 -10 15 0 8 -5 15 -11 15 -8 0 -8 4 1 15 10 12 8 13 -11
10 -17 -3 -20 -2 -11 7 8 8 6 15 -7 27 -9 9 -12 14 -6 11 6 -3 3 2 -6 11 -9 8
-20 25 -23 37 -5 13 -12 20 -19 16 -8 -5 -8 -2 1 7 13 14 17 33 5 26 -10 -6
-34 19 -26 27 4 3 -2 13 -13 22 -10 8 -12 13 -4 9 8 -4 4 3 -10 14 -14 11 -21
21 -16 21 5 0 2 8 -5 17 -9 11 -10 14 -2 9 9 -5 11 -2 7 8 -3 9 -13 16 -21 16
-8 0 -12 4 -9 9 4 5 0 12 -6 14 -10 4 -9 6 1 6 10 1 7 7 -8 20 -12 11 -22 22
-22 25 3 25 0 30 -10 16 -9 -13 -10 -12 -5 3 6 20 -12 67 -27 67 -5 0 -7 7 -3
15 3 8 0 14 -7 12 -7 -1 -11 6 -9 16 2 10 -3 17 -12 17 -10 0 -13 6 -9 17 5
11 3 14 -6 8 -10 -5 -11 -2 -6 14 5 16 2 21 -10 21 -12 0 -16 6 -12 20 3 13 0
20 -8 20 -8 0 -17 5 -21 12 -4 7 -3 8 4 4 17 -10 2 26 -16 40 -9 7 -12 16 -7
24 5 9 4 11 -3 6 -8 -5 -12 0 -12 13 0 12 -5 21 -11 21 -8 0 -8 4 0 14 10 12
8 13 -10 9 -16 -4 -20 -2 -17 8 7 18 -10 51 -22 44 -6 -3 -7 0 -4 8 3 8 -2 17
-11 21 -9 3 -13 10 -10 16 3 6 -1 17 -9 26 -9 9 -14 20 -11 25 4 5 1 9 -4 9
-6 0 -11 9 -11 20 0 11 -6 20 -14 20 -10 0 -12 7 -8 22 3 14 2 19 -6 14 -7 -4
-12 -2 -12 5 0 7 -8 21 -17 32 -10 11 -12 17 -5 13 6 -4 12 -2 12 3 0 6 -7 11
-15 11 -14 0 -19 12 -16 33 0 4 -5 7 -12 7 -8 0 -7 4 3 10 13 8 12 10 -3 10
-10 0 -15 5 -12 10 3 6 1 10 -5 10 -6 0 -10 6 -8 13 2 6 -7 22 -20 35 -12 12
-22 34 -22 48 0 14 -4 23 -8 20 -5 -3 -15 10 -22 29 -7 19 -17 32 -22 29 -4
-3 -5 1 -2 9 3 8 -5 25 -18 37 -13 13 -17 20 -10 16 20 -12 14 1 -19 39 -22
25 -26 33 -13 28 12 -4 8 3 -11 21 -16 16 -21 22 -11 15 18 -13 18 -13 6 8 -8
12 -18 19 -23 16 -5 -3 -6 4 -3 15 4 12 2 23 -5 28 -8 5 -9 3 -4 -6 5 -9 4
-11 -3 -6 -7 4 -12 16 -12 27 0 10 -4 19 -10 19 -5 0 -10 8 -10 19 0 22 -23
44 -36 33 -4 -4 -2 1 5 11 10 12 10 17 2 17 -7 0 -9 5 -6 10 3 6 -1 10 -9 10
-9 0 -15 3 -15 8 1 4 0 10 -1 15 -1 4 -3 13 -4 20 -1 6 -7 11 -14 10 -7 -2 -9
4 -5 14 5 12 3 14 -8 8 -11 -7 -11 -5 1 10 9 11 10 16 3 11 -12 -6 -18 11 -14
37 0 4 -5 7 -11 7 -9 0 -9 3 1 9 13 8 13 12 0 27 -9 11 -9 15 -1 10 8 -5 12 0
12 17 0 21 -4 23 -30 19 -17 -2 -37 1 -45 8 -13 11 -14 10 -9 -4 5 -13 2 -15
-12 -9 -11 3 -22 11 -26 17 -5 7 -8 4 -8 -7 0 -14 -4 -16 -19 -7 -14 7 -21 6
-24 -3 -4 -8 -6 -8 -6 0 -1 6 -10 9 -21 6 -11 -3 -27 0 -35 7 -13 11 -14 10
-9 -4 5 -14 3 -15 -21 -6 -33 13 -38 13 -30 0 3 -6 -1 -7 -9 -4 -9 3 -13 11
-9 18 4 6 -1 5 -10 -3 -13 -10 -17 -10 -17 -1 0 10 -3 10 -15 0 -12 -10 -18
-10 -30 0 -8 7 -24 10 -34 7 -11 -3 -22 0 -25 7 -3 7 -5 7 -5 -2 -1 -9 -6 -10
-18 -4 -10 5 -31 8 -48 7 -16 0 -36 4 -44 9 -10 8 -13 8 -9 1 4 -7 -3 -11 -18
-11 -16 0 -23 4 -20 13 3 7 3 13 0 13 -2 0 -7 -7 -10 -15z m3241 -1685 c3 -5
1 -10 -4 -10 -6 0 -11 5 -11 10 0 6 2 10 4 10 3 0 8 -4 11 -10z m320 -540 c3
-5 1 -10 -4 -10 -6 0 -11 5 -11 10 0 6 2 10 4 10 3 0 8 -4 11 -10z m-1981
-1066 c3 -8 2 -12 -4 -9 -6 3 -10 10 -10 16 0 14 7 11 14 -7z m1326 -2718 c0
-3 -4 -8 -10 -11 -5 -3 -10 -1 -10 4 0 6 5 11 10 11 6 0 10 -2 10 -4z"/>
<path d="M5813 9867 c-3 -5 -1 -7 5 -3 6 3 13 2 16 -3 7 -10 -20 -9 -30 2 -4
4 -14 1 -22 -6 -13 -10 -14 -9 -7 3 8 13 7 13 -8 1 -13 -10 -17 -10 -17 -1 0
9 -3 10 -13 1 -10 -8 -17 -7 -26 2 -10 9 -12 9 -9 -3 2 -10 -6 -14 -35 -13
-20 1 -35 -2 -33 -6 3 -4 -1 -8 -9 -8 -8 0 -15 4 -15 9 0 5 -5 6 -10 3 -6 -4
-7 -12 -3 -18 5 -9 3 -9 -8 -1 -8 7 -23 8 -34 4 -11 -4 -32 -4 -47 1 -20 5
-25 4 -22 -6 4 -9 -4 -11 -26 -9 -17 2 -29 0 -26 -4 3 -5 -1 -9 -8 -9 -8 0
-12 7 -9 16 4 14 4 14 -6 1 -6 -8 -15 -16 -21 -16 -5 -1 -11 -3 -12 -4 -2 -1
-16 -4 -33 -5 -16 -2 -34 -3 -38 -4 -5 -1 -5 -7 -1 -13 6 -10 4 -10 -8 0 -13
10 -17 10 -22 -3 -3 -10 -11 -13 -18 -9 -21 13 -47 11 -52 -3 -4 -11 -10 -11
-26 -3 -16 9 -22 8 -26 -5 -3 -8 -10 -15 -16 -15 -5 0 -6 5 -3 10 3 6 1 10 -4
10 -6 0 -11 -4 -11 -10 0 -6 -3 -9 -7 -9 -24 4 -43 -2 -37 -12 5 -8 1 -8 -14
0 -26 14 -35 14 -27 1 3 -5 -1 -10 -10 -10 -10 0 -13 -5 -9 -12 5 -9 2 -9 -9
1 -13 10 -17 10 -17 1 0 -10 -3 -10 -15 0 -13 11 -14 10 -9 -4 3 -9 2 -16 -4
-16 -6 0 -13 6 -15 13 -4 9 -6 9 -6 -1 -1 -7 -5 -10 -11 -7 -5 3 -10 2 -10 -4
0 -6 -7 -8 -16 -4 -9 3 -19 2 -23 -3 -3 -5 -17 -15 -30 -22 -19 -11 -22 -11
-15 0 6 10 4 10 -9 -1 -9 -7 -23 -11 -31 -8 -8 3 -20 -1 -26 -9 -7 -8 -21 -14
-31 -14 -10 0 -21 -4 -24 -10 -3 -5 -17 -10 -31 -10 -14 0 -23 -4 -20 -8 2 -4
-4 -8 -14 -8 -15 0 -17 3 -7 16 8 10 5 9 -9 -3 -11 -9 -25 -14 -29 -10 -5 5
-4 0 3 -9 11 -13 11 -16 0 -14 -7 1 -19 6 -27 10 -8 5 -12 5 -9 0 3 -5 -4 -18
-15 -29 -11 -11 -17 -15 -13 -8 4 7 -1 11 -13 10 -11 0 -17 -5 -14 -11 4 -5
-1 -7 -11 -3 -10 4 -15 3 -11 -3 3 -6 -1 -10 -9 -10 -9 0 -16 -5 -16 -10 0 -6
-11 -8 -25 -6 -14 3 -23 1 -20 -4 3 -4 -2 -10 -9 -13 -8 -3 -17 -1 -20 6 -2 7
-5 1 -5 -12 -1 -20 -3 -21 -16 -11 -12 10 -15 10 -15 0 0 -10 -3 -10 -15 0
-13 11 -14 10 -9 -4 4 -11 2 -16 -7 -14 -8 2 -13 -3 -11 -11 2 -11 0 -12 -11
-3 -11 10 -17 9 -28 -5 -13 -17 -13 -17 6 -3 19 14 19 14 6 -3 -10 -13 -17
-15 -27 -6 -11 9 -14 8 -14 -1 0 -7 -7 -10 -16 -6 -14 5 -15 4 -5 -8 11 -13 9
-15 -9 -11 -16 3 -24 -1 -27 -15 -3 -11 -9 -17 -14 -14 -5 3 -7 10 -4 15 3 5
-1 6 -10 3 -9 -4 -14 -13 -11 -21 3 -8 2 -12 -3 -8 -5 3 -16 -1 -24 -9 -11
-11 -17 -12 -26 -3 -7 7 -12 8 -11 2 5 -22 -1 -27 -17 -14 -11 10 -14 10 -9 2
10 -18 -4 -39 -15 -22 -7 11 -9 10 -9 -3 0 -12 -7 -16 -27 -13 -16 2 -22 2
-15 -1 6 -3 12 -13 11 -22 0 -10 -3 -12 -5 -5 -7 17 -34 4 -34 -16 0 -14 -2
-14 -10 -1 -8 13 -14 8 -12 -11 1 -3 -10 -5 -23 -3 -14 1 -28 -3 -32 -8 -3 -6
-1 -8 5 -4 6 3 13 2 16 -3 3 -5 -7 -8 -24 -7 -25 2 -27 0 -17 -13 8 -9 8 -12
1 -8 -6 4 -24 -5 -38 -18 -30 -27 -41 -32 -31 -12 4 6 -1 3 -10 -8 -8 -11 -21
-20 -28 -20 -7 0 -30 -17 -52 -38 -22 -20 -46 -35 -53 -32 -7 3 -10 0 -7 -5 3
-6 -5 -14 -19 -20 -14 -5 -26 -14 -26 -20 0 -5 -7 -10 -16 -10 -9 0 -12 -5 -8
-12 5 -8 2 -9 -10 -5 -9 4 -15 3 -12 -2 3 -5 -2 -15 -11 -22 -14 -12 -16 -12
-8 1 4 8 -3 3 -18 -12 -14 -16 -33 -28 -42 -28 -14 0 -20 -12 -16 -33 1 -5 -3
-6 -9 -2 -5 3 -10 1 -10 -6 0 -6 -8 -9 -19 -6 -14 3 -18 1 -14 -9 3 -8 0 -14
-7 -14 -6 0 -8 -4 -5 -10 3 -5 2 -10 -4 -10 -5 0 -12 6 -14 13 -3 6 -6 1 -6
-13 -1 -19 -3 -22 -10 -11 -8 12 -11 9 -16 -12 -4 -15 -10 -25 -14 -22 -4 2
-15 -5 -24 -16 -10 -11 -22 -17 -27 -14 -6 4 -7 -1 -3 -11 4 -12 3 -15 -5 -10
-7 4 -12 1 -12 -7 0 -16 -38 -53 -46 -44 -3 3 4 10 15 17 12 6 21 15 21 20 0
6 -11 0 -25 -12 -14 -12 -25 -30 -25 -40 0 -10 -7 -18 -16 -18 -8 0 -12 -4 -9
-10 3 -5 1 -10 -5 -10 -6 0 -8 -5 -4 -12 5 -8 0 -7 -11 2 -17 14 -18 13 -13
-8 4 -12 3 -20 -1 -17 -5 2 -17 -3 -27 -11 -10 -9 -12 -13 -4 -9 8 4 6 0 -4
-9 -10 -8 -23 -13 -29 -9 -6 3 -7 1 -3 -5 7 -11 -42 -68 -79 -91 -20 -12 -20
-12 0 -6 20 6 20 6 0 -13 -11 -11 -23 -18 -27 -15 -5 2 -8 -5 -8 -16 0 -11 -9
-26 -20 -34 -11 -8 -17 -17 -13 -20 3 -4 -2 -7 -12 -7 -10 0 -16 -3 -12 -6 3
-4 -11 -22 -31 -42 -20 -19 -30 -31 -22 -27 12 7 13 6 3 -7 -7 -8 -9 -19 -5
-24 4 -4 -2 -2 -12 6 -11 8 -17 10 -13 3 4 -6 1 -18 -7 -26 -8 -8 -12 -17 -9
-21 4 -3 -1 -6 -11 -6 -9 0 -14 -5 -11 -10 3 -6 -1 -13 -10 -16 -9 -4 -14 -12
-11 -19 3 -8 -2 -16 -10 -19 -9 -3 -12 -11 -8 -18 5 -7 2 -9 -9 -5 -12 4 -15
1 -12 -14 2 -11 0 -17 -6 -14 -5 4 -9 1 -9 -5 0 -6 -4 -9 -8 -6 -5 3 -9 -1
-10 -9 -1 -8 -3 -22 -4 -30 -1 -10 -7 -14 -17 -10 -8 3 -12 3 -8 -1 4 -4 1
-14 -6 -22 -10 -13 -9 -15 3 -8 13 7 13 6 0 -6 -8 -7 -21 -25 -29 -40 -8 -15
-18 -25 -22 -22 -5 3 -6 -1 -3 -9 3 -8 0 -18 -7 -23 -8 -5 -10 -3 -4 6 5 9 4
11 -4 6 -9 -6 -9 -12 1 -24 7 -10 9 -14 4 -10 -12 10 -39 -20 -32 -37 3 -9 0
-12 -10 -8 -8 3 -14 2 -13 -3 4 -26 -4 -46 -26 -66 -13 -11 -22 -24 -20 -28 3
-5 -3 -25 -12 -46 -9 -22 -16 -43 -15 -47 2 -5 -8 -6 -20 -3 -13 3 -17 3 -10
0 6 -3 12 -12 12 -20 0 -9 -4 -12 -10 -9 -5 3 -7 0 -4 -8 3 -8 0 -18 -5 -22
-6 -3 -9 -11 -6 -16 4 -5 2 -9 -3 -9 -6 0 -13 -7 -16 -16 -3 -8 -2 -12 4 -9 6
3 7 -1 4 -9 -3 -9 -11 -13 -17 -9 -6 4 -8 0 -4 -10 3 -8 0 -18 -8 -21 -8 -3
-11 -13 -8 -27 4 -15 3 -20 -5 -15 -8 5 -10 2 -6 -9 4 -9 -1 -21 -10 -28 -9
-7 -17 -24 -18 -37 -1 -14 -6 -31 -12 -39 -9 -12 -8 -13 4 -6 13 8 13 6 1 -8
-7 -9 -11 -24 -7 -32 3 -9 0 -15 -10 -15 -8 0 -12 -4 -9 -10 3 -5 1 -10 -5
-10 -6 0 -9 -4 -5 -9 3 -5 1 -12 -5 -16 -5 -3 -10 -11 -10 -16 0 -6 4 -8 9 -5
5 4 4 -5 -2 -19 -7 -15 -18 -23 -26 -20 -10 4 -11 2 -3 -7 14 -17 12 -30 -7
-46 -9 -8 -10 -11 -3 -7 16 8 16 -17 0 -33 -10 -10 -10 -15 2 -22 12 -8 12
-10 1 -10 -7 0 -11 -6 -7 -15 3 -8 2 -14 -2 -14 -19 3 -25 -2 -12 -11 11 -7
11 -10 2 -10 -7 0 -10 -4 -7 -10 3 -5 0 -10 -7 -10 -9 0 -9 -3 2 -10 13 -8 13
-11 1 -22 -12 -11 -13 -10 -6 2 7 13 6 13 -6 1 -11 -11 -11 -14 -1 -18 10 -4
10 -8 0 -21 -11 -13 -11 -14 2 -7 8 4 4 -4 -10 -20 -14 -16 -19 -25 -12 -21
14 8 12 -19 -2 -43 -7 -10 -6 -12 4 -6 10 6 11 4 4 -6 -15 -24 -17 -62 -2 -54
7 4 6 1 -3 -7 -9 -7 -14 -19 -11 -27 2 -8 0 -11 -5 -8 -5 3 -10 0 -10 -8 0 -8
5 -11 10 -8 6 4 7 1 1 -8 -14 -23 -16 -51 -2 -44 7 4 2 -3 -12 -15 -21 -18
-22 -21 -5 -15 16 5 18 4 8 -6 -17 -17 -17 -32 0 -23 6 4 4 -1 -5 -12 -12 -13
-14 -24 -7 -36 6 -10 6 -19 0 -23 -6 -3 -7 -13 -4 -22 5 -12 3 -14 -8 -9 -8 4
-5 0 5 -8 11 -9 14 -16 7 -16 -7 0 -10 -4 -7 -9 4 -5 0 -12 -6 -14 -10 -4 -10
-6 0 -6 6 -1 12 -6 12 -12 0 -5 -4 -8 -9 -4 -6 3 -6 -7 0 -27 11 -40 11 -40 1
-34 -10 6 -8 -76 2 -92 4 -7 2 -12 -5 -12 -8 0 -8 -4 1 -15 10 -12 10 -15 0
-15 -9 0 -9 -4 1 -17 12 -15 12 -16 -1 -8 -11 7 -10 2 4 -19 15 -24 16 -28 3
-23 -10 4 -15 1 -12 -6 12 -39 14 -77 4 -71 -8 4 -8 1 -2 -12 5 -11 8 -31 7
-47 -2 -19 1 -25 9 -20 7 4 6 0 -2 -10 -11 -14 -11 -17 0 -17 11 0 11 -2 -1
-10 -8 -5 -10 -10 -3 -10 13 0 12 -18 -1 -39 -7 -10 -5 -12 4 -6 9 6 10 2 5
-15 -4 -14 -3 -20 2 -17 6 4 8 -4 5 -18 -2 -15 0 -25 7 -25 7 0 9 -5 6 -10 -4
-6 -12 -7 -18 -3 -7 4 -7 0 1 -10 8 -9 11 -21 7 -27 -3 -5 -2 -10 3 -10 6 0 9
-13 8 -29 -1 -17 2 -27 7 -24 5 3 6 -4 2 -16 -4 -14 -2 -21 7 -21 10 0 9 -3
-2 -10 -12 -8 -12 -10 -1 -10 11 0 11 -3 1 -15 -9 -10 -9 -15 -1 -15 6 0 11
-13 11 -29 0 -17 6 -31 16 -35 12 -5 13 -10 5 -19 -8 -10 -7 -17 2 -27 10 -10
8 -12 -8 -6 -20 6 -20 6 -1 -9 11 -8 16 -15 10 -15 -5 0 -2 -5 6 -10 13 -9 13
-10 0 -10 -9 0 -11 -3 -5 -8 25 -18 36 -40 24 -48 -8 -5 -9 -3 -4 6 5 9 4 11
-3 6 -9 -5 -7 -14 4 -31 9 -13 13 -28 10 -34 -3 -5 1 -12 9 -15 12 -4 14 -10
5 -25 -8 -16 -7 -22 6 -29 10 -6 15 -16 11 -26 -4 -9 -2 -16 3 -16 6 0 10 -11
10 -25 0 -14 7 -28 15 -31 10 -4 13 -13 9 -26 -4 -12 -2 -18 4 -15 5 4 8 -4 6
-18 -1 -14 2 -25 7 -25 5 0 4 -10 -2 -22 -11 -21 -11 -22 4 -10 13 11 15 10
13 -12 -2 -14 1 -24 6 -23 6 1 12 -13 14 -31 2 -18 11 -40 19 -49 8 -8 13 -19
10 -24 -4 -5 -1 -9 5 -9 6 0 9 -4 5 -9 -3 -5 0 -15 7 -23 7 -7 14 -20 16 -28
2 -8 8 -17 13 -18 6 -2 4 -11 -3 -20 -11 -14 -10 -15 7 -8 11 4 16 4 12 0 -4
-4 -2 -13 5 -21 6 -7 8 -16 5 -19 -3 -4 1 -13 9 -21 8 -8 12 -19 9 -24 -4 -5
2 -6 11 -2 12 4 15 3 10 -6 -4 -6 -1 -23 8 -36 9 -13 16 -32 16 -41 0 -15 31
-65 58 -93 7 -7 11 -19 8 -26 -2 -7 5 -21 17 -32 l22 -18 -20 25 -20 25 22
-19 c18 -15 20 -22 12 -33 -9 -10 -8 -13 6 -13 11 0 15 -5 11 -16 -4 -10 -2
-13 6 -8 8 5 9 1 4 -12 -4 -10 -4 -15 0 -11 9 9 45 -33 38 -44 -3 -5 2 -9 11
-9 9 0 13 -4 10 -10 -3 -5 -1 -10 4 -10 6 0 11 -10 11 -22 0 -19 2 -20 10 -8
8 12 10 11 10 -7 0 -12 8 -28 18 -35 11 -7 25 -24 32 -38 7 -14 23 -34 35 -45
12 -11 25 -28 28 -37 4 -10 11 -18 18 -18 6 0 8 -7 5 -16 -3 -8 -2 -12 4 -9 5
3 14 -4 20 -15 6 -11 16 -17 22 -14 7 5 8 2 4 -5 -5 -8 6 -26 30 -48 22 -20
30 -30 19 -23 -14 9 -12 5 5 -12 14 -14 28 -24 31 -22 4 2 10 -7 13 -21 4 -14
10 -24 14 -22 4 1 8 -2 9 -7 1 -5 12 -14 25 -21 13 -6 22 -17 21 -23 -2 -7 4
-12 13 -12 13 0 14 -3 4 -15 -10 -12 -8 -14 9 -10 15 3 21 -1 21 -13 0 -15 56
-58 71 -54 4 1 6 -6 5 -16 0 -9 5 -16 12 -15 6 2 12 -3 12 -11 0 -8 14 -20 30
-28 17 -7 30 -19 30 -25 0 -7 5 -13 11 -13 5 0 7 -4 4 -10 -3 -6 1 -7 9 -4 9
3 16 1 16 -6 0 -14 25 -40 39 -40 12 0 33 -35 25 -43 -3 -3 4 -3 17 0 18 5 21
3 16 -10 -3 -9 -1 -19 5 -23 7 -4 8 -3 4 4 -17 28 18 8 55 -30 22 -23 37 -34
33 -23 -7 17 -6 18 8 5 9 -8 15 -17 15 -20 -1 -3 1 -5 5 -5 4 0 14 -9 22 -21
8 -11 33 -29 55 -39 22 -10 38 -22 35 -26 -3 -5 1 -9 10 -9 8 0 16 -4 18 -9 2
-5 10 -11 18 -13 8 -2 25 -13 38 -26 13 -13 30 -21 38 -18 7 3 16 -4 19 -15 5
-15 13 -19 27 -16 16 5 17 3 6 -11 -7 -9 -9 -14 -4 -10 13 11 48 -11 39 -25
-4 -8 -2 -8 9 1 13 10 18 10 24 1 5 -8 3 -9 -6 -4 -8 5 -11 4 -6 -3 4 -6 13
-9 21 -6 8 4 17 -1 21 -9 3 -9 13 -18 21 -21 14 -6 14 -4 2 11 -13 17 28 -15
60 -47 9 -9 12 -10 8 -4 -6 9 -2 11 12 7 12 -3 18 -9 15 -14 -3 -5 4 -9 15 -9
12 0 21 -4 21 -10 0 -5 7 -10 16 -10 9 0 12 -5 8 -12 -5 -7 -2 -9 8 -5 10 3
25 -4 38 -18 13 -14 27 -22 32 -19 5 3 16 0 25 -8 12 -9 15 -9 9 0 -13 21 4
13 31 -15 15 -16 23 -22 19 -15 -10 17 2 15 21 -3 8 -8 19 -13 24 -10 5 4 9
-1 9 -10 0 -9 5 -13 10 -10 6 4 18 1 27 -7 10 -7 14 -8 10 -1 -5 8 -1 8 17 0
13 -7 22 -15 20 -19 -5 -8 8 -11 41 -9 17 2 17 0 5 -8 -12 -9 -9 -11 13 -11
30 0 67 -16 79 -34 5 -7 8 -6 8 3 0 9 6 7 19 -7 19 -22 37 -30 26 -12 -4 6 5
5 19 -2 14 -6 26 -16 26 -21 0 -5 8 -3 17 4 11 10 14 10 9 2 -5 -9 0 -13 14
-13 14 0 19 -4 14 -12 -5 -9 -2 -9 9 1 10 8 17 9 17 3 0 -6 9 -9 20 -7 13 2
20 -2 20 -11 0 -12 4 -13 21 -3 15 8 19 8 15 0 -7 -10 8 -15 42 -14 6 1 12 -3
12 -8 0 -5 11 -9 25 -9 14 0 25 -4 25 -9 0 -5 7 -12 16 -15 8 -3 12 -2 9 4 -3
6 -1 10 4 10 6 0 11 -4 11 -9 0 -5 7 -12 16 -15 15 -6 15 -4 3 11 -13 17 -13
17 7 0 11 -9 24 -14 27 -10 4 3 7 1 7 -5 0 -7 5 -12 11 -12 5 0 7 4 4 10 -3 6
1 7 9 4 9 -3 14 -9 11 -13 -2 -4 9 -7 26 -6 18 1 33 -4 39 -14 8 -14 9 -14 10
-1 0 13 1 13 10 0 9 -13 10 -13 10 0 0 9 3 11 8 4 11 -16 42 -25 42 -12 0 9 3
9 11 1 6 -6 18 -9 25 -6 8 3 17 -2 20 -11 6 -15 8 -15 20 1 10 13 13 14 9 3
-4 -12 1 -15 22 -14 16 1 33 -1 38 -5 6 -3 23 -6 38 -7 16 -1 33 -6 40 -13 13
-13 51 -15 43 -2 -4 5 3 7 15 4 11 -3 23 -13 27 -21 5 -13 6 -13 12 2 6 17 7
17 22 2 12 -12 18 -13 21 -3 4 9 6 8 6 -2 1 -11 4 -11 18 0 14 12 16 12 8 0
-6 -11 -4 -13 7 -8 9 3 21 0 27 -6 6 -6 11 -7 11 -1 0 5 8 10 19 10 11 0 17
-5 14 -13 -4 -10 1 -11 21 -3 17 6 26 6 26 0 0 -6 7 -10 16 -10 8 0 13 4 10 9
-4 5 3 7 14 4 11 -3 17 -10 14 -17 -3 -6 2 -2 10 8 9 11 16 14 16 7 0 -7 8
-11 18 -9 9 1 23 -1 30 -5 6 -5 12 -4 12 1 0 6 9 8 21 5 27 -7 69 35 48 48 -9
5 -10 9 -2 9 12 0 12 17 0 36 -3 6 -3 14 0 18 13 12 13 46 0 46 -7 0 -8 3 -2
8 14 10 15 65 1 74 -6 4 -6 8 -1 8 14 0 15 70 1 70 -7 0 -7 3 -1 8 14 10 15
65 1 74 -7 5 -8 8 0 8 6 0 10 14 9 30 -1 17 2 30 7 30 5 0 2 7 -6 16 -18 17
-21 28 -6 19 6 -4 10 9 11 32 2 78 -1 155 -7 164 -3 5 -1 9 4 9 12 0 10 43 -3
52 -6 5 -5 8 4 8 11 0 11 3 1 15 -7 8 -8 15 -3 15 8 0 8 95 -1 133 -2 9 -1 17
2 17 8 0 6 205 -2 226 -3 8 -2 14 3 14 5 0 5 18 1 40 -4 22 -5 40 -1 40 7 0 5
206 -3 226 -3 8 -2 14 2 14 11 0 8 364 -3 372 -6 5 -5 8 4 8 11 0 11 3 1 15
-7 8 -8 15 -3 15 8 0 8 95 -1 132 -2 10 -1 18 2 18 8 0 6 205 -2 226 -3 8 -2
14 3 14 11 0 8 44 -4 52 -6 5 -5 8 4 8 11 0 11 3 1 15 -7 9 -8 15 -2 15 12 0
10 33 -3 42 -6 5 -5 8 4 8 11 0 11 3 1 15 -7 8 -9 15 -4 15 9 0 9 224 0 247
-3 8 2 13 12 13 12 0 14 2 4 8 -8 5 -12 27 -11 59 1 27 -2 56 -6 63 -6 10 -4
12 10 6 15 -5 16 -4 6 8 -7 8 -10 19 -7 25 3 5 0 12 -6 14 -7 3 -8 6 -3 6 10
1 11 110 1 136 -3 8 -1 15 5 15 6 0 5 8 -2 22 -10 18 -9 20 5 15 14 -6 14 -3
-1 20 -17 26 -17 27 0 20 16 -6 16 -5 0 20 -17 26 -17 27 1 20 16 -6 17 -5 6
8 -7 8 -10 24 -7 35 3 11 1 20 -4 20 -4 0 -6 7 -2 16 9 23 8 118 -1 132 -4 7
-3 12 2 12 9 0 6 113 -3 139 -5 12 -3 12 11 0 16 -13 16 -12 6 7 -6 12 -10 52
-9 88 2 40 -2 66 -8 66 -7 0 -7 3 0 8 15 11 13 151 -2 157 -7 2 -13 -1 -13 -8
0 -8 -4 -6 -10 3 -6 9 -10 11 -10 3 0 -7 -7 -10 -15 -6 -28 10 -335 9 -335 -2
0 -5 -5 -3 -11 5 -8 12 -12 12 -16 2 -4 -10 -8 -10 -19 -1 -11 9 -21 9 -40 0
-14 -6 -23 -8 -21 -4 7 11 -717 8 -734 -2 -9 -6 -11 -3 -5 10 5 15 4 16 -9 5
-9 -7 -25 -10 -41 -6 -18 5 -24 3 -18 -5 5 -8 3 -9 -6 -4 -20 12 -199 12 -193
0 3 -5 0 -4 -8 3 -7 6 -17 12 -22 12 -4 0 -5 -6 -1 -12 6 -10 5 -10 -7 -1 -12
10 -18 10 -27 1 -9 -9 -12 -9 -12 0 0 10 -5 10 -21 1 -13 -7 -19 -7 -15 -1 4
7 -6 9 -30 5 -25 -4 -39 -2 -45 8 -7 11 -9 10 -9 -6 0 -15 -3 -16 -12 -7 -14
14 -32 16 -24 4 4 -7 -25 -8 -44 -2 -3 1 -41 2 -85 2 -44 0 -86 4 -93 10 -10
8 -11 7 -6 -7 6 -13 4 -16 -6 -10 -7 4 -114 8 -239 7 -155 0 -231 4 -240 12
-12 8 -13 8 -7 -1 5 -10 -9 -12 -63 -10 -39 1 -71 0 -72 -3 -7 -52 -6 -60 3
-54 6 4 6 -2 -1 -15 -9 -16 -9 -21 1 -21 8 0 9 -3 3 -8 -13 -9 -13 -275 0
-284 7 -5 6 -8 -1 -8 -12 0 -12 -29 1 -49 5 -9 4 -12 -3 -7 -13 8 -10 -53 3
-74 5 -9 4 -11 -3 -6 -15 9 -15 -9 -2 -35 7 -13 7 -19 1 -19 -6 0 -8 -13 -4
-32 4 -22 3 -29 -5 -24 -8 5 -10 2 -6 -8 3 -9 10 -16 16 -16 5 0 7 -4 4 -9 -3
-5 10 -8 29 -6 24 1 39 -3 45 -14 8 -13 9 -12 10 8 0 24 0 24 16 5 8 -10 13
-13 9 -6 -3 6 -1 12 4 12 6 0 11 -4 11 -10 0 -5 6 -7 13 -4 22 8 175 10 170 2
-2 -5 1 -8 6 -8 6 0 11 4 11 8 0 5 7 9 15 9 8 0 12 -4 10 -8 -3 -4 2 -9 10
-12 8 -4 12 -1 9 6 -6 16 71 14 91 -3 13 -11 14 -10 10 3 -7 17 25 19 37 2 5
-6 8 -6 8 1 0 6 10 10 23 9 12 -2 21 -8 19 -14 -1 -7 2 -10 8 -6 6 3 8 11 5
16 -8 12 6 11 24 0 9 -6 22 -6 33 0 10 5 18 6 18 1 0 -4 15 -7 33 -5 31 3 56
3 107 2 14 -1 54 0 90 2 36 2 72 -1 79 -6 10 -6 12 -4 6 6 -7 12 -6 12 7 1 13
-10 17 -10 21 0 4 10 8 10 16 -2 10 -13 11 -13 11 0 0 13 1 13 10 0 7 -11 10
-11 10 -2 0 9 5 10 19 2 14 -7 21 -6 24 3 4 8 6 9 6 0 1 -8 10 -9 31 -3 21 6
30 5 30 -3 0 -8 3 -8 9 1 6 11 11 10 25 -3 15 -15 16 -15 17 2 0 10 3 13 5 6
3 -7 15 -9 32 -4 32 9 64 3 57 -10 -4 -5 -1 -9 4 -9 6 0 11 8 11 18 0 14 2 15
10 2 5 -8 10 -10 10 -5 0 17 54 12 62 -5 5 -12 7 -12 7 3 1 14 5 16 18 8 12
-7 21 -5 30 7 12 15 12 15 7 -2 -6 -16 -4 -17 14 -7 15 8 22 8 25 -2 4 -9 8
-9 15 2 9 12 13 12 26 2 13 -11 16 -11 16 0 0 8 6 5 15 -7 10 -12 13 -14 10
-3 -5 13 1 15 45 9 27 -4 50 -4 50 0 0 3 9 6 20 6 11 0 20 -5 20 -11 0 -5 5
-3 10 5 9 13 10 13 10 0 0 -9 3 -11 8 -5 8 12 73 14 66 3 -3 -5 0 -8 5 -8 6 0
11 5 11 11 0 8 6 7 17 -2 15 -12 16 -12 10 3 -4 12 -2 15 8 11 8 -3 13 -9 10
-13 -3 -5 0 -12 6 -16 8 -4 9 -3 5 5 -6 8 2 11 27 9 24 -1 33 -6 30 -15 -3 -7
-1 -13 5 -13 12 0 10 -33 -3 -42 -6 -5 -5 -8 4 -8 11 0 11 -3 1 -15 -8 -10 -9
-15 -1 -15 7 0 8 -8 2 -23 -5 -13 -6 -29 -1 -36 4 -7 4 -28 0 -46 -4 -18 -4
-39 0 -46 5 -7 4 -23 -1 -36 -6 -15 -5 -23 2 -23 8 0 7 -5 -1 -15 -10 -12 -10
-18 1 -32 12 -15 12 -16 -5 -10 -16 6 -17 5 -7 -7 9 -10 9 -16 1 -21 -8 -5 -8
-11 1 -21 9 -11 8 -14 -7 -15 -18 0 -18 -1 1 -9 11 -5 14 -9 6 -9 -11 -1 -11
-4 -1 -16 11 -13 10 -14 -4 -9 -12 5 -15 2 -10 -10 3 -9 11 -13 16 -10 7 5 7
1 1 -11 -6 -10 -8 -26 -6 -35 3 -10 0 -21 -6 -24 -7 -5 -5 -16 7 -34 9 -14 11
-23 5 -19 -7 5 -13 4 -13 -2 0 -6 3 -11 8 -11 4 0 7 -29 7 -65 0 -36 -4 -65
-8 -65 -4 0 -3 -10 4 -21 9 -17 8 -20 -2 -14 -9 6 -10 3 -4 -11 4 -10 8 -53 9
-96 1 -64 -1 -74 -13 -65 -10 9 -9 2 3 -22 10 -18 13 -30 7 -27 -6 4 -11 2
-11 -3 0 -6 4 -11 9 -11 13 0 0 -50 -13 -51 -6 0 -2 -4 9 -9 11 -5 14 -9 7 -9
-7 -1 -10 -6 -7 -11 10 -16 12 -130 3 -130 -5 0 -4 -10 3 -21 8 -15 8 -19 0
-15 -14 9 -14 0 0 -26 8 -15 8 -19 0 -14 -6 4 -11 2 -11 -3 0 -6 6 -11 13 -12
6 0 3 -4 -8 -9 -13 -6 -15 -9 -5 -9 10 -1 15 -12 15 -35 0 -19 -3 -32 -7 -30
-4 3 -8 0 -8 -5 0 -6 3 -11 8 -11 12 0 1 -84 -12 -92 -7 -5 -3 -8 9 -9 11 0
14 -3 8 -6 -10 -3 -10 -10 -2 -25 8 -15 8 -19 0 -14 -6 4 -11 2 -11 -3 0 -6 3
-11 8 -11 4 0 7 -29 7 -65 0 -36 -4 -65 -8 -65 -4 0 -3 -10 4 -21 9 -17 8 -20
-2 -14 -9 6 -10 3 -4 -11 4 -10 8 -53 9 -96 1 -64 -1 -74 -13 -65 -10 9 -9 2
3 -22 10 -18 13 -30 7 -27 -6 4 -11 2 -11 -3 0 -6 4 -11 9 -11 13 0 0 -50 -13
-51 -6 0 -2 -4 9 -9 11 -5 14 -9 7 -9 -7 -1 -10 -6 -7 -11 10 -16 12 -130 3
-130 -5 0 -4 -10 3 -21 8 -15 8 -19 0 -15 -6 4 -11 4 -11 1 0 -4 5 -16 11 -27
8 -15 8 -19 0 -14 -6 4 -11 2 -11 -3 0 -6 6 -11 13 -12 6 0 3 -4 -8 -9 -13 -6
-15 -9 -5 -9 10 -1 15 -12 15 -35 0 -19 -3 -32 -7 -29 -5 2 -8 -1 -8 -6 0 -6
5 -11 10 -11 22 0 -10 -38 -35 -42 -20 -4 -23 -3 -14 8 9 11 7 14 -12 13 -13
-1 -33 2 -44 6 -16 5 -17 5 -5 -4 8 -6 10 -11 4 -11 -6 0 -17 7 -24 15 -7 8
-28 15 -47 15 -20 0 -36 6 -39 14 -3 9 -12 12 -21 9 -12 -5 -14 -3 -8 8 8 12
6 12 -8 0 -15 -12 -18 -10 -26 10 -9 22 -10 22 -11 4 -1 -11 -4 -14 -7 -7 -2
6 -9 10 -14 6 -5 -3 -9 0 -9 7 0 8 -5 7 -17 -2 -11 -10 -14 -10 -9 -1 5 8 -2
12 -23 12 -17 0 -31 5 -31 11 0 5 -4 7 -10 4 -5 -3 -10 -1 -10 5 0 6 -4 8 -10
5 -6 -3 -10 -2 -10 4 0 5 -9 8 -20 6 -11 -2 -20 1 -20 6 0 6 -4 8 -9 5 -5 -4
-11 -1 -13 5 -2 7 -18 12 -35 13 -17 0 -31 6 -30 11 1 6 -7 10 -18 10 -11 1
-19 6 -18 12 1 6 -6 9 -17 6 -11 -3 -20 0 -20 6 0 6 -9 11 -20 11 -11 0 -20 4
-20 9 0 5 -14 11 -31 15 -20 4 -28 10 -23 17 5 8 3 9 -6 4 -7 -4 -15 -2 -20 4
-6 11 -24 17 -52 20 -5 1 -8 8 -8 17 0 13 -3 14 -13 5 -10 -8 -19 -6 -34 9
-12 10 -24 16 -29 12 -4 -4 -4 1 -1 11 4 10 3 16 -2 12 -5 -3 -12 -1 -16 4 -3
6 -12 8 -19 5 -8 -3 -21 5 -30 18 -9 13 -16 17 -16 8 0 -9 -7 -7 -23 8 -13 12
-27 19 -30 15 -4 -3 -7 1 -7 9 0 9 -7 19 -16 22 -12 5 -14 3 -8 -7 5 -7 1 -5
-8 6 -10 10 -22 16 -28 12 -5 -3 -15 6 -20 20 -5 14 -14 24 -19 21 -5 -4 -16
1 -24 9 -9 8 -19 15 -22 15 -4 0 -16 10 -27 22 -11 13 -17 17 -13 11 3 -7 1
-13 -4 -13 -6 0 -11 5 -11 11 0 5 -5 7 -10 4 -6 -4 -10 -3 -9 2 4 21 -2 43
-12 43 -5 0 -7 -4 -4 -10 3 -5 -1 -10 -9 -10 -9 0 -16 7 -16 15 0 8 -6 14 -12
12 -7 -1 -12 4 -11 10 2 7 -8 15 -22 19 -14 3 -23 10 -20 14 3 5 -4 11 -15 15
-11 3 -20 11 -20 16 0 6 5 7 12 3 7 -4 8 -3 4 4 -5 9 -13 9 -28 1 -11 -6 -18
-7 -15 -2 3 5 -5 17 -18 27 -14 10 -22 22 -19 27 3 5 -3 6 -12 2 -13 -5 -15
-3 -9 7 6 10 4 12 -8 7 -12 -4 -14 -2 -10 10 4 11 2 14 -5 9 -8 -4 -12 0 -12
11 0 15 -2 16 -10 3 -7 -11 -10 -11 -10 -2 0 7 -4 10 -10 7 -5 -3 -10 -1 -10
5 0 6 -6 18 -14 26 -11 11 -16 11 -19 1 -3 -7 -6 -5 -6 6 -1 9 -5 17 -11 17
-5 0 -10 10 -10 21 0 19 -2 20 -17 8 -11 -9 -14 -9 -10 -2 5 7 0 17 -12 25
-16 10 -18 15 -8 27 9 12 9 13 0 8 -13 -8 -37 26 -25 37 3 4 -1 4 -11 0 -11
-4 -17 -1 -17 7 0 11 -3 11 -10 -1 -8 -12 -10 -10 -10 9 0 18 -4 22 -17 17
-10 -4 -14 -4 -10 0 4 4 -5 16 -20 26 -16 10 -23 18 -17 18 5 0 15 -5 20 -10
7 -7 11 -6 11 4 0 8 -3 15 -6 14 -22 -2 -32 4 -28 17 4 8 1 17 -5 21 -7 4 -8
3 -4 -4 4 -7 2 -12 -4 -12 -7 0 -14 8 -17 19 -2 10 -18 28 -34 40 -16 12 -29
28 -29 36 0 8 -4 15 -10 15 -5 0 -10 7 -10 15 0 8 -4 15 -10 15 -5 0 -10 7
-10 16 0 18 -18 37 -44 47 -12 5 -17 14 -13 27 3 12 1 18 -5 14 -10 -7 -28 13
-28 31 0 6 5 3 10 -5 6 -9 10 -10 10 -3 0 19 -21 27 -31 12 -5 -8 -9 -9 -9 -4
0 6 5 16 11 22 8 8 7 13 -2 18 -8 5 -10 4 -5 -3 4 -7 2 -12 -3 -12 -6 0 -11 9
-11 21 0 11 -4 18 -9 15 -5 -3 -12 1 -15 10 -4 10 -2 13 7 9 6 -4 3 2 -9 12
-11 10 -19 24 -16 31 2 7 -2 10 -11 7 -9 -4 -13 1 -13 17 1 13 -4 22 -10 21
-7 -1 -10 10 -9 28 2 26 1 28 -13 17 -12 -10 -14 -10 -8 0 4 6 2 12 -3 12 -6
0 -11 7 -11 15 0 8 -6 15 -12 15 -9 0 -8 4 2 10 10 6 11 10 3 10 -7 0 -13 7
-13 16 0 8 -5 12 -10 9 -5 -3 -10 3 -10 15 0 12 -7 28 -15 37 -8 8 -13 19 -10
24 4 5 1 9 -4 9 -6 0 -11 9 -11 19 0 11 -6 21 -12 24 -10 3 -9 8 2 22 14 17
13 17 -10 10 -20 -6 -23 -5 -13 6 10 10 9 15 -5 26 -9 8 -11 12 -5 8 9 -4 11
-1 7 9 -3 9 -11 13 -18 9 -6 -4 -5 1 3 11 12 15 12 17 0 14 -8 -2 -13 4 -13
15 1 9 -3 17 -8 17 -6 0 -8 7 -4 15 3 8 1 15 -5 15 -6 0 -7 5 -4 10 3 6 1 10
-4 10 -6 0 -10 3 -10 8 4 21 -2 32 -13 26 -7 -4 -10 -4 -6 1 4 4 3 14 -4 22
-8 11 -7 12 6 7 12 -5 15 -2 10 10 -3 9 -10 16 -15 16 -4 0 -5 7 -2 17 5 12 3
14 -7 8 -10 -6 -12 -2 -8 19 4 21 2 26 -10 21 -12 -4 -13 -3 -2 10 8 10 9 15
1 15 -6 0 -11 5 -11 11 0 5 6 7 13 3 6 -4 3 3 -8 16 -11 13 -14 20 -7 16 6 -4
12 -3 12 2 0 6 -8 13 -17 16 -15 6 -15 8 -3 16 12 8 12 10 -2 15 -10 4 -14 13
-11 21 4 10 -2 17 -16 21 -19 5 -21 12 -20 68 1 35 -1 67 -5 73 -3 6 0 13 6
15 8 3 9 6 2 6 -7 1 -9 12 -6 27 3 16 1 24 -4 21 -6 -3 -10 3 -10 14 0 10 4
19 9 19 5 0 3 8 -4 17 -10 11 -10 14 -2 9 7 -4 13 -2 13 3 0 6 -4 11 -9 11
-10 0 -11 22 -11 225 -1 274 1 320 13 327 9 6 8 8 -2 8 -11 0 -11 3 0 17 12
14 12 15 1 9 -12 -7 -12 -4 -2 14 6 12 9 28 6 35 -3 8 0 16 7 19 9 3 9 5 0 5
-7 1 -13 6 -13 12 0 5 4 7 10 4 6 -3 10 -1 10 5 0 6 5 8 12 4 7 -4 8 -3 4 5
-4 6 -10 9 -14 7 -4 -2 -8 7 -9 21 0 16 2 21 7 14 5 -9 9 -4 12 13 3 17 1 23
-6 19 -8 -5 -8 -3 0 8 6 8 10 24 9 37 -1 13 2 25 7 28 4 3 8 15 8 28 0 12 6
28 13 35 10 11 9 12 -3 6 -12 -6 -13 -5 -2 6 6 7 12 22 12 34 0 12 6 27 13 34
9 11 9 12 0 7 -9 -5 -11 -2 -7 8 3 9 10 16 15 16 6 0 5 9 -1 20 -9 16 -8 18 5
14 8 -4 15 -1 15 5 0 6 -6 11 -12 11 -9 0 -8 4 2 10 8 5 11 10 6 10 -6 0 -1 7
10 16 10 8 14 13 8 10 -8 -4 -11 3 -10 18 1 20 4 22 15 13 12 -9 13 -9 7 0 -4
7 -1 23 6 35 6 13 12 32 13 43 1 29 15 65 25 65 5 0 10 12 12 28 2 15 8 27 15
27 6 0 15 4 20 9 4 5 3 6 -4 2 -6 -3 -14 -2 -17 3 -3 5 1 12 9 15 8 3 14 11
13 18 -2 7 2 12 8 11 6 -1 11 5 11 13 0 8 -4 14 -9 14 -17 0 -7 21 15 30 12 5
16 9 10 9 -7 1 -13 6 -13 12 0 5 3 8 8 6 4 -3 16 7 26 21 11 14 14 22 8 18 -7
-4 -12 -3 -12 2 0 6 7 12 15 16 8 3 15 12 15 21 0 8 5 15 11 15 5 0 7 5 4 10
-3 6 2 10 12 10 15 0 16 2 3 10 -12 7 -12 10 -1 10 8 0 11 6 7 16 -5 14 -4 15
8 5 12 -10 14 -8 12 13 -2 15 4 32 15 42 10 9 16 20 14 24 -2 4 5 16 18 26 21
19 21 19 7 -1 -14 -19 -14 -19 3 -6 13 10 15 17 6 27 -9 11 -8 14 5 14 10 0
14 5 11 10 -3 6 -1 10 4 10 6 0 10 4 8 9 -1 5 7 17 18 26 11 9 13 14 5 10 -8
-4 -4 3 10 15 14 12 18 18 10 14 -12 -6 -13 -5 -2 7 11 12 14 12 23 -1 7 -11
8 -8 5 13 -4 22 -2 27 9 23 8 -3 14 -2 14 2 -4 25 2 42 13 36 8 -5 9 -2 5 9
-4 10 -2 16 6 14 7 -1 11 4 9 12 -2 9 4 12 16 9 11 -3 19 0 19 7 0 8 -7 11
-16 8 -10 -4 -9 0 4 10 11 8 24 13 30 10 5 -4 7 -3 3 1 -4 5 4 18 17 31 14 12
21 26 17 30 -4 5 2 5 12 1 15 -5 17 -4 7 7 -14 18 21 52 44 43 13 -5 14 -2 4
16 -10 18 -9 20 5 15 9 -4 16 -2 16 4 0 6 5 7 11 3 7 -4 6 2 -2 17 -11 22 -11
23 4 10 15 -11 17 -11 17 2 0 8 9 25 21 38 l20 24 -15 -26 c-14 -22 -14 -26
-1 -26 8 0 12 4 9 8 -4 7 34 79 43 79 2 0 1 -6 -3 -12 -4 -7 8 3 27 22 20 19
33 40 31 45 -3 6 -2 7 3 3 11 -10 47 11 40 23 -4 5 -1 8 7 7 7 -2 12 2 11 9
-2 7 3 10 11 7 9 -3 17 3 21 17 5 15 10 18 15 9 5 -8 9 -5 13 9 3 12 13 21 24
21 10 0 25 5 33 11 12 8 9 9 -10 4 -24 -6 -24 -5 3 10 15 9 33 13 39 9 6 -4 8
-3 5 3 -8 12 41 65 54 58 5 -4 9 2 9 11 0 10 3 14 7 11 3 -4 12 1 20 11 10 11
12 12 8 2 -3 -8 2 -5 11 8 9 12 23 22 31 22 7 0 16 7 19 15 4 8 10 15 16 15 5
0 6 -5 2 -12 -4 -7 -3 -8 5 -4 6 4 9 12 6 17 -6 8 11 13 42 12 7 0 11 2 10 6
-1 4 13 22 31 40 28 29 44 37 75 40 5 1 5 6 1 13 -4 7 -3 8 4 4 14 -8 55 17
45 27 -3 4 0 7 7 7 7 0 23 8 34 18 20 16 20 16 7 -1 -12 -15 -12 -17 2 -11 8
3 18 12 21 20 3 9 10 12 16 9 5 -3 10 -1 10 5 0 7 7 9 16 6 8 -3 13 -2 11 2
-3 4 12 15 32 25 31 15 33 15 16 1 -18 -15 -18 -16 -2 -10 10 3 21 6 23 6 2 0
4 7 4 15 0 8 9 15 19 15 11 0 23 5 27 12 5 7 3 8 -6 3 -9 -5 -11 -4 -6 4 6 9
11 9 22 0 9 -7 14 -8 14 -1 0 11 38 28 54 24 5 -2 6 4 3 12 -5 12 -1 13 18 6
16 -6 27 -6 31 2 5 7 3 8 -6 3 -9 -5 -11 -4 -6 4 6 9 11 9 24 -1 9 -8 13 -8 9
-2 -4 7 0 15 9 18 8 3 12 11 8 17 -4 8 -3 9 5 5 6 -4 8 -13 4 -19 -4 -7 0 -7
10 1 9 8 20 11 26 8 5 -4 13 3 16 15 6 17 9 19 16 8 6 -10 9 -11 9 -2 0 7 3
12 8 12 25 -4 42 2 36 14 -5 7 -2 7 10 -2 15 -12 17 -12 14 0 -2 9 4 13 15 11
10 -2 17 3 17 13 0 8 5 15 11 15 5 0 7 -4 4 -10 -9 -14 8 -12 24 3 11 10 12 9
6 -3 -7 -12 -6 -13 7 -3 8 7 18 10 21 6 4 -3 7 -1 7 6 0 7 5 9 10 6 6 -3 10
-3 10 2 0 4 11 13 25 20 14 6 23 8 20 4 -2 -4 2 -8 10 -8 8 0 12 4 9 9 -3 4 5
8 18 8 13 0 33 7 46 15 20 15 21 15 16 -2 -5 -17 -5 -17 9 -1 11 14 16 15 27
5 10 -9 11 -9 6 1 -7 11 -3 14 27 16 6 1 15 5 19 10 10 14 58 16 58 3 0 -8 3
-8 8 -2 12 16 56 39 46 24 -5 -9 -2 -10 10 -6 10 4 20 7 22 7 3 0 3 3 1 8 -3
4 14 6 36 5 23 0 48 4 55 10 8 6 27 10 43 9 16 -1 38 2 49 8 15 8 20 8 20 -2
0 -10 3 -10 9 1 5 8 16 11 25 8 9 -4 16 -2 16 3 0 5 7 7 16 3 9 -3 20 0 25 8
5 8 9 9 9 4 0 -6 9 -11 20 -12 11 -1 20 2 20 8 0 11 22 7 32 -6 5 -6 8 -6 8 2
0 8 15 11 41 10 22 -2 43 2 46 7 4 5 1 6 -7 1 -8 -5 -11 -4 -7 2 4 6 18 9 32
8 16 -2 25 2 25 11 0 8 6 14 13 14 14 0 16 27 4 46 -3 6 -3 14 1 18 12 12 10
106 -2 99 -6 -4 -5 1 3 11 10 12 11 20 3 28 -6 6 -8 18 -3 27 9 20 8 52 -2 69
-5 6 -5 18 0 25 12 20 12 97 -1 90 -6 -4 -5 1 3 11 13 15 13 19 0 27 -8 5 -9
9 -4 9 12 0 14 65 3 76 -4 4 -3 14 4 21 8 10 8 17 2 21 -6 4 -14 15 -17 26 -4
11 -13 16 -22 12 -8 -3 -15 0 -15 6 0 9 -3 9 -11 1 -7 -7 -23 -8 -45 -3 -21 5
-37 4 -41 -3z m-1613 -1222 c0 -2 -10 -9 -22 -15 -22 -11 -22 -10 -4 4 21 17
26 19 26 11z m-555 -5205 c3 -5 1 -10 -4 -10 -6 0 -11 5 -11 10 0 6 2 10 4 10
3 0 8 -4 11 -10z m585 -372 c0 -6 -6 -5 -15 2 -8 7 -15 14 -15 16 0 2 7 1 15
-2 8 -4 15 -11 15 -16z"/>
<path d="M2030 9309 c-156 -31 -307 -186 -345 -354 -50 -227 95 -477 351 -604
359 -178 718 9 738 384 5 84 -46 226 -110 310 -28 37 -225 175 -249 175 -11 0
-71 -89 -262 -385 -27 -40 -30 -35 76 -105 40 -26 79 -46 85 -44 6 3 43 55 82
116 l72 112 21 -35 c67 -108 39 -229 -69 -304 -39 -27 -51 -30 -119 -30 -67 0
-85 4 -146 34 -96 47 -175 128 -198 201 -10 31 -15 67 -13 80 2 14 5 32 5 41
1 8 15 36 32 62 34 52 95 87 152 87 35 0 39 4 102 101 37 56 69 108 72 114 12
32 -183 63 -277 44z"/>
<path d="M10657 8996 c-43 -24 -83 -48 -89 -54 -7 -7 6 -41 45 -115 l56 -104
-27 -14 c-15 -8 -61 -32 -102 -55 -41 -22 -129 -69 -195 -104 -197 -103 -440
-233 -445 -237 -2 -2 19 -51 48 -109 36 -70 59 -104 70 -104 9 0 37 12 62 26
25 14 92 51 150 81 58 31 128 68 155 83 28 15 109 58 180 95 72 37 150 79 174
92 24 13 44 23 46 21 1 -2 23 -43 50 -93 26 -49 53 -96 60 -103 11 -12 29 -5
109 38 53 28 96 56 96 61 0 6 -20 48 -45 95 -25 46 -65 121 -89 167 -23 45
-78 148 -121 230 -53 99 -83 147 -94 146 -9 0 -51 -20 -94 -43z"/>
<path d="M4251 8664 c0 -11 3 -14 6 -6 3 7 2 16 -1 19 -3 4 -6 -2 -5 -13z"/>
<path d="M9770 8089 c0 -5 5 -7 10 -4 6 3 10 8 10 11 0 2 -4 4 -10 4 -5 0 -10
-5 -10 -11z"/>
<path d="M3520 8065 c-11 -13 -10 -14 4 -9 9 3 16 10 16 15 0 13 -6 11 -20 -6z"/>
<path d="M1514 7275 c-3 -11 -36 -114 -73 -230 l-68 -210 -241 -3 c-133 -1
-242 -6 -242 -10 1 -4 88 -69 194 -145 l194 -139 -25 -76 c-13 -43 -28 -86
-33 -97 -19 -44 -90 -279 -87 -288 1 -5 9 -3 17 5 13 12 262 196 345 255 l30
21 167 -122 c92 -67 179 -132 193 -145 15 -12 29 -20 32 -17 3 2 -7 42 -22 88
-15 46 -28 88 -30 93 -1 6 -5 17 -8 25 -8 19 -55 163 -72 218 l-13 42 81 57
c45 31 84 60 87 63 6 6 131 96 182 130 21 14 38 28 38 32 0 4 -109 9 -242 10
l-242 3 -73 224 c-40 123 -75 226 -78 229 -3 4 -8 -3 -11 -13z"/>
<path d="M10947 7175 c-21 -63 -53 -167 -73 -230 l-37 -115 -243 0 c-219 0
-275 -6 -230 -23 13 -5 376 -266 376 -270 0 -2 -93 -288 -105 -325 -3 -7 -5
-14 -5 -17 0 -3 -6 -21 -14 -40 -9 -20 -15 -37 -16 -40 0 -3 -3 -12 -7 -20
-11 -31 7 -26 64 19 32 25 119 90 194 145 l137 99 158 -115 c88 -63 176 -127
196 -143 36 -29 55 -24 37 10 -5 8 -38 106 -75 218 -45 140 -63 207 -56 215 6
7 92 71 191 142 99 72 181 133 181 138 0 4 -108 7 -239 7 l-239 0 -72 223
c-40 122 -75 226 -79 230 -4 4 -24 -44 -44 -108z"/>
<path d="M7720 7119 c0 -5 5 -7 10 -4 6 3 10 8 10 11 0 2 -4 4 -10 4 -5 0 -10
-5 -10 -11z"/>
<path d="M9311 6874 c0 -11 3 -14 6 -6 3 7 2 16 -1 19 -3 4 -6 -2 -5 -13z"/>
<path d="M2029 5856 c-2 -2 -20 -6 -39 -9 -136 -19 -669 -124 -728 -143 -188
-62 -297 -190 -307 -363 -13 -215 119 -391 333 -441 50 -12 193 -9 250 4 12 3
85 17 162 31 77 14 150 28 162 31 42 8 253 45 291 51 50 8 52 23 27 157 -11
61 -20 113 -20 118 0 4 -6 5 -12 3 -7 -2 -30 -7 -51 -10 -21 -3 -71 -12 -110
-20 -40 -7 -99 -19 -132 -25 -61 -10 -89 -16 -135 -25 -14 -2 -38 -7 -55 -10
-16 -2 -76 -13 -132 -23 -186 -35 -260 -8 -282 100 -19 96 43 162 174 185 11
2 58 10 105 19 47 9 96 18 110 20 14 2 36 7 50 9 14 3 39 8 55 10 17 3 53 10
80 15 70 13 100 19 184 34 40 7 77 19 81 25 6 11 -2 68 -31 209 -9 47 -17 60
-30 48z"/>
<path d="M10462 5803 c-18 -35 -65 -274 -56 -283 8 -7 370 -228 419 -254 57
-31 246 -148 243 -151 -2 -1 -34 -6 -71 -10 -37 -3 -76 -8 -85 -10 -9 -1 -44
-6 -77 -9 -33 -4 -80 -9 -105 -12 -25 -2 -61 -7 -80 -9 -19 -3 -55 -7 -80 -10
-25 -3 -63 -7 -85 -10 -112 -12 -181 -19 -187 -17 -4 1 -10 -8 -13 -21 -3 -12
-18 -80 -34 -150 l-28 -129 21 -8 c20 -9 127 -33 193 -45 18 -3 63 -12 100
-21 38 -9 77 -18 88 -20 23 -4 121 -26 405 -88 302 -66 329 -71 339 -61 5 6
18 57 30 115 12 58 24 112 27 121 4 14 -37 26 -266 74 -195 41 -268 58 -280
65 -10 6 -7 8 10 7 28 -1 214 15 335 28 46 5 179 17 212 19 12 1 24 4 27 7 3
2 15 49 26 104 21 93 21 100 5 111 -10 7 -125 74 -257 150 -131 75 -238 138
-236 139 2 2 50 -7 108 -21 58 -13 119 -26 135 -28 17 -3 88 -19 159 -35 87
-20 134 -27 142 -20 9 8 54 192 58 238 1 13 -41 26 -137 45 -12 2 -107 23
-212 46 -104 23 -197 43 -205 45 -8 2 -49 11 -90 20 -41 9 -86 18 -99 21 -39
8 -343 73 -368 79 -15 3 -25 -1 -31 -12z"/>
<path d="M2185 4865 c-27 -14 -77 -36 -110 -51 -265 -116 -845 -377 -865 -389
-14 -8 -24 -22 -23 -33 2 -15 88 -210 98 -220 3 -3 81 29 215 90 36 16 79 36
95 43 17 7 57 25 90 41 145 66 185 83 185 77 0 -4 -303 -419 -343 -468 -33
-42 -87 -120 -87 -127 0 -4 23 -56 50 -114 28 -58 50 -110 50 -114 0 -5 93 34
208 85 114 51 349 156 522 234 173 78 320 147 326 154 10 9 9 20 -5 47 -9 19
-32 70 -51 113 -18 42 -39 77 -46 77 -11 0 -53 -18 -232 -101 -46 -22 -86 -39
-88 -39 -3 0 -56 -23 -191 -85 -40 -19 -73 -32 -73 -29 0 2 66 93 147 201 254
342 293 395 289 402 -1 3 -10 22 -19 41 -55 121 -87 190 -89 189 -2 0 -25 -11
-53 -24z"/>
<path d="M2517 4679 c7 -7 15 -10 18 -7 3 3 -2 9 -12 12 -14 6 -15 5 -6 -5z"/>
<path d="M3420 4542 c0 -5 7 -15 15 -22 8 -7 15 -9 15 -6 0 4 -7 14 -15 22 -8
9 -15 11 -15 6z"/>
<path d="M10252 4449 c-123 -31 -208 -86 -276 -179 -159 -216 -102 -522 132
-705 243 -191 563 -214 762 -56 66 53 86 78 125 156 44 88 55 140 50 235 -4
79 -17 125 -58 206 -126 249 -472 410 -735 343z m312 -297 c100 -50 174 -124
197 -197 30 -93 -8 -196 -93 -252 -56 -38 -172 -42 -251 -11 -227 92 -318 266
-217 413 49 72 105 96 208 91 61 -3 86 -10 156 -44z"/>
<path d="M8746 4215 c-11 -8 -17 -17 -14 -20 2 -3 13 4 23 15 21 23 18 25 -9
5z"/>
<path d="M2593 3796 c-81 -58 -161 -114 -178 -126 -16 -12 -160 -113 -320
-225 -173 -121 -290 -209 -289 -218 1 -8 32 -58 68 -111 l67 -96 83 58 c708
494 856 599 859 607 3 6 -28 56 -68 113 l-73 102 -149 -104z"/>
<path d="M3099 3892 c9 -7 10 -11 2 -15 -7 -4 -8 -5 -1 -3 16 2 14 20 -2 24
-10 3 -10 2 1 -6z"/>
<path d="M4300 3791 c0 -6 4 -13 10 -16 6 -3 7 1 4 9 -7 18 -14 21 -14 7z"/>
<path d="M3216 3767 c3 -10 9 -15 12 -12 3 3 0 11 -7 18 -10 9 -11 8 -5 -6z"/>
<path d="M8970 3519 c0 -5 5 -7 10 -4 6 3 10 8 10 11 0 2 -4 4 -10 4 -5 0 -10
-5 -10 -11z"/>
<path d="M2988 3509 c-17 -9 -122 -112 -147 -142 -13 -17 -6 -27 75 -108 l89
-90 -325 -319 -325 -320 88 -88 c61 -62 95 -88 110 -87 20 1 84 62 554 528
l93 92 82 -81 c54 -52 90 -80 103 -79 19 2 175 147 175 163 0 12 -528 535
-543 538 -7 1 -21 -2 -29 -7z"/>
<path d="M9577 3465 c-84 -23 -155 -64 -219 -129 -61 -60 -187 -198 -242 -262
l-26 -32 129 -116 c71 -63 135 -121 143 -128 7 -7 74 -67 148 -133 74 -66 137
-123 140 -126 3 -3 48 -43 100 -89 52 -47 113 -101 135 -122 22 -21 45 -38 52
-38 6 0 23 15 38 33 15 17 62 70 105 117 196 215 234 288 229 448 -4 150 -65
272 -200 402 -124 120 -255 180 -399 185 -48 2 -106 -3 -133 -10z m250 -266
c81 -39 177 -133 211 -207 51 -112 30 -205 -70 -315 l-53 -58 -25 23 c-14 13
-63 57 -110 98 -47 41 -94 84 -106 95 -11 11 -53 49 -93 85 -133 118 -155 139
-149 146 4 3 26 28 50 56 100 117 213 142 345 77z"/>
<path d="M3598 2797 c-411 -610 -576 -862 -572 -869 5 -7 425 -291 491 -331
13 -8 146 181 137 195 -4 6 -68 50 -143 100 -75 49 -138 92 -140 94 -2 2 24
46 59 98 l63 94 124 -84 c68 -46 128 -84 133 -84 13 0 132 179 126 188 -3 5
-61 46 -130 92 l-125 84 56 80 c31 45 58 83 59 85 2 2 70 -40 150 -93 81 -54
150 -94 154 -89 30 33 121 177 118 189 -2 7 -115 87 -251 178 l-248 164 -61
-91z"/>
<path d="M8760 2786 c-262 -58 -421 -293 -379 -561 38 -236 225 -471 438 -548
79 -28 211 -34 287 -12 218 63 357 253 348 480 -1 43 -8 99 -14 124 -14 53
-159 282 -176 278 -21 -4 -434 -282 -434 -291 0 -12 113 -186 121 -186 3 0 59
36 125 80 134 89 133 89 129 -15 -2 -64 -28 -118 -74 -154 -120 -95 -251 -77
-366 51 -160 178 -154 384 13 464 43 20 111 20 150 0 30 -15 30 -15 138 56 60
40 112 77 116 82 9 14 -15 39 -76 80 -107 70 -234 96 -346 72z"/>
<path d="M4310 2456 c0 -2 -47 -125 -106 -272 -58 -148 -150 -383 -205 -522
-54 -140 -99 -262 -99 -271 0 -12 51 -36 203 -94 222 -85 261 -95 363 -92 214
7 403 172 488 426 32 94 38 134 38 224 1 177 -80 327 -226 419 -28 18 -139 67
-246 110 -186 73 -210 81 -210 72z m351 -446 c45 -49 63 -111 56 -193 -10
-123 -78 -250 -162 -302 -78 -48 -142 -48 -273 1 -37 14 -42 19 -36 37 9 31
191 495 209 534 l15 33 77 -35 c50 -23 91 -49 114 -75z"/>
<path d="M7942 2341 c-57 -20 -107 -43 -111 -50 -5 -7 0 -35 11 -64 11 -29 42
-113 68 -187 27 -74 64 -180 84 -235 20 -55 36 -104 36 -109 0 -4 -17 7 -38
25 -21 19 -66 59 -101 89 -35 30 -73 64 -85 75 -12 11 -50 45 -86 75 -36 30
-67 57 -70 60 -3 3 -41 37 -85 74 -44 38 -81 72 -83 76 -4 11 -241 -73 -247
-87 -2 -7 25 -95 61 -195 37 -101 85 -237 109 -303 155 -435 208 -581 215
-588 8 -9 208 57 236 77 15 11 12 23 -29 137 -25 68 -71 196 -103 284 -31 88
-59 167 -62 175 -6 15 39 -19 108 -81 19 -17 62 -54 95 -82 32 -29 95 -84 140
-122 44 -39 110 -97 147 -129 l67 -58 108 37 c122 42 137 50 130 79 -3 12 -64
185 -137 386 -72 201 -157 436 -188 523 -40 113 -60 157 -71 156 -9 0 -62 -17
-119 -38z"/>
<path d="M6900 2054 c-41 -8 -88 -15 -103 -16 -48 -4 -51 -17 -32 -140 9 -62
19 -120 20 -129 2 -9 6 -34 10 -55 3 -22 16 -106 30 -189 13 -82 26 -168 29
-190 4 -22 11 -65 16 -95 5 -30 12 -72 16 -94 3 -21 7 -46 9 -55 1 -9 8 -57
15 -107 7 -51 15 -96 19 -102 7 -12 235 21 255 37 10 8 11 24 5 63 -5 29 -11
71 -14 93 -3 22 -10 60 -15 85 -8 37 -19 106 -45 285 -3 18 -40 248 -50 305
-2 14 -7 45 -10 70 -3 25 -7 52 -9 60 -1 8 -8 54 -16 103 -15 99 -5 94 -130
71z"/>
<path d="M5714 2008 c-10 -15 -13 -117 -30 -843 -3 -137 -7 -262 -8 -278 -2
-15 0 -30 5 -33 14 -8 244 -13 257 -5 7 4 13 82 17 221 3 118 7 216 9 217 2 2
37 -54 192 -309 l89 -147 90 -2 c50 0 116 -2 147 -4 39 -1 61 2 69 11 13 16
28 -10 -193 337 -87 137 -158 253 -158 258 0 5 48 76 108 159 241 336 263 370
260 387 -2 14 -14 18 -48 19 -25 1 -88 3 -140 5 -53 1 -101 0 -107 -4 -7 -4
-34 -40 -60 -80 -110 -163 -227 -333 -235 -342 -6 -6 -7 75 -4 213 5 175 4
222 -6 223 -144 8 -248 7 -254 -3z"/>
</g>
</svg>
