<svg width="104" height="65" viewBox="0 0 104 65" fill="none" xmlns="http://www.w3.org/2000/svg">
    <path d="M98.5622 64.482C97.6231 64.482 96.7916 64.3575 96.0675 64.1086C95.3434 63.8484 94.6985 63.4524 94.1328 62.9207L94.5741 62.0891C95.1737 62.6209 95.7733 62.9999 96.373 63.2261C96.9839 63.4411 97.7136 63.5486 98.5622 63.5486C99.5691 63.5486 100.35 63.3449 100.904 62.9376C101.47 62.519 101.753 61.9364 101.753 61.1897C101.753 60.7484 101.617 60.392 101.345 60.1205C101.074 59.8377 100.729 59.6227 100.31 59.4756C99.8915 59.3172 99.3315 59.1588 98.6301 59.0004C97.7023 58.7968 96.95 58.5875 96.373 58.3725C95.8073 58.1576 95.3264 57.8351 94.9304 57.4052C94.5345 56.964 94.3365 56.3756 94.3365 55.6402C94.3365 54.9614 94.5118 54.3674 94.8626 53.8583C95.2133 53.3492 95.7054 52.9532 96.339 52.6704C96.9839 52.3875 97.7363 52.2461 98.5961 52.2461C99.4107 52.2461 100.163 52.3819 100.853 52.6534C101.555 52.9136 102.16 53.2983 102.669 53.8074L102.228 54.639C101.662 54.1298 101.091 53.7621 100.514 53.5359C99.9368 53.2983 99.2976 53.1795 98.5961 53.1795C97.5892 53.1795 96.8029 53.3944 96.2372 53.8244C95.6715 54.2543 95.3886 54.8539 95.3886 55.6233C95.3886 56.2908 95.6319 56.7886 96.1184 57.1167C96.6162 57.4335 97.3403 57.705 98.2906 57.9313L98.7319 58.0331C99.6483 58.2594 100.372 58.4687 100.904 58.661C101.436 58.8534 101.883 59.1532 102.245 59.5605C102.618 59.9565 102.805 60.4939 102.805 61.1727C102.805 61.8289 102.629 62.4059 102.279 62.9037C101.928 63.4015 101.43 63.7918 100.785 64.0747C100.152 64.3462 99.4107 64.482 98.5622 64.482Z" fill="#808082"/>
    <path d="M82.9375 52.3828H86.7898C88.6906 52.3828 90.1557 52.9032 91.1853 53.9441C92.2148 54.9737 92.7296 56.4445 92.7296 58.3565C92.7296 60.2685 92.2092 61.745 91.1683 62.7859C90.1387 63.8267 88.6793 64.3472 86.7898 64.3472H82.9375V52.3828ZM86.7389 63.4307C88.3568 63.4307 89.573 63.0065 90.3876 62.1579C91.2136 61.3094 91.6265 60.0423 91.6265 58.3565C91.6265 54.985 89.9973 53.2992 86.7389 53.2992H83.9897V63.4307H86.7389Z" fill="#808082"/>
    <path d="M81.047 64.3472H79.893L77.8735 60.5118C77.6019 59.9913 77.2852 59.635 76.9231 59.4426C76.5611 59.2503 76.0633 59.1541 75.4297 59.1541H72.935V64.3472H71.8828V52.3828H76.6686C77.9244 52.3828 78.8917 52.6713 79.5705 53.2483C80.2494 53.814 80.5888 54.6456 80.5888 55.743C80.5888 56.6707 80.3173 57.4175 79.7742 57.9831C79.2424 58.5375 78.4788 58.8769 77.4831 59.0014C77.7773 59.0919 78.0375 59.2503 78.2638 59.4766C78.5014 59.6915 78.7164 59.98 78.9087 60.3421L81.047 64.3472ZM76.6007 58.2547C78.5693 58.2547 79.5536 57.4118 79.5536 55.726C79.5536 54.9001 79.3103 54.2892 78.8238 53.8932C78.3373 53.4859 77.5963 53.2823 76.6007 53.2823H72.918V58.2547H76.6007Z" fill="#808082"/>
    <path d="M69.3376 64.3472L67.963 61.1567H61.5141L60.1395 64.3472H59.0703L64.2633 52.3828H65.2137L70.4067 64.3472H69.3376ZM61.9044 60.2403H67.5726L64.7385 53.6217L61.9044 60.2403Z" fill="#808082"/>
    <path d="M58.512 52.3828H59.5472L55.3894 64.3472H54.4729L50.8752 54.029L47.2774 64.3472H46.3779L42.2031 52.3828H43.2553L46.8531 62.8877L50.4848 52.3828L51.2994 52.3998L54.9142 62.8537L58.512 52.3828Z" fill="#808082"/>
    <path d="M41.6032 64.3472L40.2286 61.1567H33.7797L32.4051 64.3472H31.3359L36.529 52.3828H37.4793L42.6724 64.3472H41.6032ZM34.17 60.2403H39.8383L37.0042 53.6217L34.17 60.2403Z" fill="#808082"/>
    <path d="M0 49.5547H104" stroke="#0C466C"/>
    <path d="M0 27.0586H3.17483V34.4108H3.23053C3.45332 34.0581 3.72253 33.7424 4.03816 33.464C4.35379 33.1855 4.69726 32.9534 5.06859 32.7677C5.45848 32.5635 5.85765 32.415 6.26611 32.3221C6.69313 32.2107 7.11087 32.155 7.51933 32.155C8.65187 32.155 9.63588 32.3593 10.4714 32.7677C11.3254 33.1576 12.0309 33.7053 12.5879 34.4108C13.1449 35.0978 13.5626 35.9054 13.8411 36.8337C14.1196 37.762 14.2589 38.7553 14.2589 39.8136C14.2589 40.7791 14.1289 41.7167 13.869 42.6264C13.6276 43.5361 13.247 44.3438 12.7272 45.0493C12.2259 45.7362 11.5853 46.2932 10.8056 46.7203C10.0258 47.1287 9.10675 47.3329 8.04847 47.3329C7.56575 47.3329 7.07374 47.2958 6.57245 47.2215C6.08973 47.1658 5.62557 47.0452 5.17998 46.8595C4.73439 46.6738 4.32594 46.4325 3.95461 46.1354C3.60185 45.8384 3.30479 45.4485 3.06343 44.9657H3.00773V46.943H0V27.0586ZM11.0841 39.7579C11.0841 39.1081 11.0005 38.4768 10.8334 37.8642C10.6663 37.2515 10.4157 36.713 10.0815 36.2489C9.74728 35.7662 9.32954 35.3856 8.82825 35.1071C8.32696 34.81 7.75141 34.6615 7.10159 34.6615C5.76482 34.6615 4.75296 35.1256 4.06601 36.0539C3.39762 36.9823 3.06343 38.2169 3.06343 39.7579C3.06343 40.482 3.14698 41.1597 3.31408 41.7909C3.49974 42.4036 3.76895 42.9327 4.12171 43.3783C4.47447 43.8239 4.89221 44.1767 5.37493 44.4366C5.87622 44.6965 6.45177 44.8265 7.10159 44.8265C7.82567 44.8265 8.43836 44.678 8.93965 44.3809C9.44094 44.0838 9.8494 43.7032 10.165 43.2391C10.4992 42.7564 10.7313 42.2179 10.8613 41.6238C11.0098 41.0111 11.0841 40.3892 11.0841 39.7579Z" fill="url(#paint0_linear_14618_7779)"/>
    <path d="M19.6893 38.3653C16.7091 31.8561 8.26562 30.8555 8.26562 30.8555C8.26562 30.8555 13.7289 33.8595 16.7092 47.3771H22.1727C39.0597 3.82032 57.4372 0.816406 57.4372 0.816406C57.4372 0.816406 40.053 1.81771 19.6893 38.3653Z" fill="#E42328"/>
    <path d="M18.6348 39.9764C18.6348 39.9764 19.1491 39.4743 19.1491 38.9722C17.6063 35.9597 13.4922 33.4492 13.4922 33.4492C13.4922 33.4492 18.1206 37.968 18.6348 39.9764Z" fill="white"/>
    <path fill-rule="evenodd" clip-rule="evenodd" d="M45.7031 10.5195H48.878V17.8718H48.9337C49.1564 17.519 49.4257 17.2034 49.7413 16.9249C50.0569 16.6464 50.4004 16.4143 50.7717 16.2287C51.1616 16.0244 51.5608 15.8759 51.9692 15.7831C52.3963 15.6717 52.814 15.616 53.2225 15.616C54.355 15.616 55.339 15.8202 56.1745 16.2287C57.0285 16.6185 57.7341 17.1662 58.291 17.8718C58.848 18.5587 59.2658 19.3663 59.5443 20.2947C59.8228 21.223 59.962 22.2163 59.962 23.2745C59.962 24.24 59.832 25.1776 59.5721 26.0873C59.3308 26.9971 58.9501 27.8047 58.4303 28.5102C57.929 29.1972 57.2885 29.7542 56.5087 30.1812C55.7289 30.5896 54.8099 30.7939 53.7516 30.7939C53.2689 30.7939 52.7769 30.7567 52.2756 30.6825C51.7929 30.6268 51.3287 30.5061 50.8831 30.3204C50.4375 30.1348 50.0291 29.8934 49.6577 29.5964C49.305 29.2993 49.0079 28.9094 48.7666 28.4267H48.7109V30.404H45.7031V10.5195ZM56.7872 23.2188C56.7872 22.569 56.7036 21.9378 56.5365 21.3251C56.3694 20.7124 56.1188 20.174 55.7846 19.7098C55.4504 19.2271 55.0327 18.8465 54.5314 18.568C54.0301 18.2709 53.4545 18.1224 52.8047 18.1224C51.4679 18.1224 50.4561 18.5866 49.7691 19.5149C49.1007 20.4432 48.7666 21.6778 48.7666 23.2188C48.7666 23.9429 48.8501 24.6206 49.0172 25.2519C49.2029 25.8645 49.4721 26.3937 49.8248 26.8393C50.1776 27.2849 50.5953 27.6376 51.0781 27.8975C51.5793 28.1575 52.1549 28.2874 52.8047 28.2874C53.5288 28.2874 54.1415 28.1389 54.6428 27.8418C55.1441 27.5448 55.5525 27.1642 55.8681 26.7C56.2023 26.2173 56.4344 25.6789 56.5644 25.0848C56.7129 24.4721 56.7872 23.8501 56.7872 23.2188ZM91.1094 16.0042H93.5044V11.6875H96.6792V16.0042H99.5477V18.3713H96.6792V26.0578C96.6792 26.392 96.6885 26.6797 96.7071 26.9211C96.7442 27.1625 96.8092 27.3667 96.902 27.5338C97.0134 27.7009 97.1713 27.8309 97.3755 27.9237C97.5797 27.998 97.8582 28.0351 98.211 28.0351H98.8793C99.1021 28.0165 99.3249 27.9794 99.5477 27.9237V30.3744C99.195 30.4116 98.8515 30.4487 98.5173 30.4858C98.1831 30.523 97.8396 30.5415 97.4869 30.5415C96.6514 30.5415 95.9737 30.4673 95.4539 30.3187C94.9526 30.1516 94.5534 29.9196 94.2564 29.6225C93.9779 29.3069 93.7829 28.917 93.6715 28.4528C93.5787 27.9887 93.523 27.4595 93.5044 26.8654V18.3713H91.1094V16.0042ZM80.5186 25.7783C80.6114 26.7066 80.9642 27.3564 81.5769 27.7278C82.1895 28.0991 82.9229 28.2847 83.777 28.2847C84.074 28.2847 84.4082 28.2662 84.7795 28.229C85.1694 28.1733 85.5315 28.0805 85.8657 27.9506C86.1999 27.8206 86.4691 27.6349 86.6733 27.3936C86.8961 27.1336 86.9982 26.7994 86.9796 26.391C86.9611 25.9825 86.8125 25.6483 86.534 25.3884C86.2556 25.1285 85.8935 24.9243 85.4479 24.7757C85.0209 24.6086 84.5289 24.4694 83.9719 24.358C83.4149 24.2466 82.8486 24.1259 82.2731 23.9959C81.679 23.866 81.1034 23.7082 80.5464 23.5225C80.008 23.3368 79.516 23.0862 79.0704 22.7706C78.6434 22.4549 78.2999 22.0558 78.04 21.573C77.7801 21.0718 77.6501 20.4591 77.6501 19.735C77.6501 18.9552 77.8358 18.3054 78.2071 17.7855C78.597 17.2471 79.0797 16.8201 79.6553 16.5045C80.2494 16.1703 80.8992 15.9382 81.6047 15.8082C82.3288 15.6783 83.0157 15.6133 83.6656 15.6133C84.4082 15.6133 85.1137 15.6968 85.7821 15.8639C86.4691 16.0125 87.0817 16.2631 87.6202 16.6159C88.1772 16.9686 88.632 17.4328 88.9848 18.0083C89.3561 18.5653 89.5882 19.243 89.681 20.0413H86.3669C86.2184 19.2801 85.8657 18.7695 85.3087 18.5096C84.7703 18.2497 84.1483 18.1197 83.4428 18.1197C83.22 18.1197 82.9508 18.1383 82.6351 18.1754C82.3381 18.2126 82.0503 18.2868 81.7718 18.3982C81.5119 18.4911 81.2891 18.6396 81.1034 18.8438C80.9178 19.0295 80.8249 19.2801 80.8249 19.5957C80.8249 19.9856 80.9549 20.3013 81.2148 20.5426C81.4933 20.784 81.8461 20.9882 82.2731 21.1553C82.7187 21.3038 83.22 21.4338 83.777 21.5452C84.3339 21.6566 84.9095 21.7773 85.5036 21.9072C86.0792 22.0372 86.6454 22.195 87.2024 22.3807C87.7594 22.5663 88.2514 22.817 88.6784 23.1326C89.124 23.4482 89.4768 23.8474 89.7367 24.3301C90.0152 24.8129 90.1545 25.407 90.1545 26.1125C90.1545 26.9665 89.9595 27.6906 89.5696 28.2847C89.1797 28.8789 88.6692 29.3616 88.0379 29.7329C87.4252 30.1042 86.7383 30.3734 85.9771 30.5405C85.2158 30.7076 84.4639 30.7912 83.7213 30.7912C82.8115 30.7912 81.9667 30.6891 81.187 30.4848C80.4257 30.2806 79.7574 29.9743 79.1818 29.5658C78.6248 29.1388 78.1792 28.6189 77.845 28.0063C77.5294 27.375 77.3623 26.6323 77.3438 25.7783H80.5186ZM72.2017 20.4869C72.3874 20.9511 72.4988 21.4338 72.5359 21.9351H65.128C65.1465 21.3967 65.2486 20.8954 65.4343 20.4312C65.6385 19.9671 65.8985 19.5679 66.2141 19.2337C66.5483 18.8809 66.9382 18.6117 67.3838 18.4261C67.8479 18.2218 68.3585 18.1197 68.9155 18.1197C69.4539 18.1197 69.9366 18.2311 70.3636 18.4539C70.8092 18.6581 71.1805 18.9366 71.4776 19.2894C71.7932 19.6236 72.0346 20.0228 72.2017 20.4869ZM65.3507 25.6391C65.2022 25.1192 65.128 24.5808 65.128 24.0238H75.7107C75.8407 22.9469 75.7664 21.9072 75.4879 20.9047C75.228 19.8835 74.801 18.9831 74.2068 18.2033C73.6127 17.4235 72.8608 16.8015 71.951 16.3374C71.0599 15.8546 70.048 15.6133 68.9155 15.6133C67.8386 15.6133 66.8732 15.8175 66.0191 16.226C65.1651 16.6344 64.4317 17.1914 63.819 17.8969C63.2249 18.5839 62.7608 19.3915 62.4266 20.3198C62.1109 21.2296 61.9531 22.195 61.9531 23.2162C61.9531 24.3301 62.1017 25.3513 62.3987 26.2796C62.7143 27.2079 63.1692 28.0063 63.7633 28.6746C64.376 29.343 65.1187 29.8629 65.9913 30.2342C66.8639 30.6055 67.8665 30.7912 68.999 30.7912C69.7788 30.7912 70.5215 30.6798 71.227 30.457C71.951 30.2528 72.6009 29.9464 73.1764 29.538C73.752 29.1109 74.244 28.5911 74.6524 27.9784C75.0609 27.3657 75.3487 26.6695 75.5158 25.8897H72.508C72.2295 26.688 71.8025 27.2915 71.227 27.6999C70.67 28.0898 69.9273 28.2847 68.999 28.2847C68.3306 28.2847 67.7551 28.1733 67.2724 27.9506C66.7896 27.7092 66.3905 27.3936 66.0748 27.0037C65.7592 26.6138 65.5178 26.1589 65.3507 25.6391ZM42.4014 27.0547H39.2266V30.0624H42.4014V27.0547ZM42.4014 32.541H39.2266V46.9391H42.4014V32.541ZM45.8594 32.5384H48.8671V34.6549L48.9228 34.7106C49.4055 33.9123 50.0368 33.2903 50.8166 32.8447C51.5963 32.3806 52.4597 32.1485 53.4066 32.1485C54.9847 32.1485 56.2286 32.5569 57.1384 33.3738C58.0481 34.1908 58.503 35.4161 58.503 37.05V46.9365H55.3282V37.8854C55.291 36.7529 55.0497 35.936 54.6041 35.4347C54.1585 34.9148 53.4623 34.6549 52.5154 34.6549C51.977 34.6549 51.4942 34.757 51.0672 34.9613C50.6402 35.1469 50.2781 35.4161 49.9811 35.7689C49.684 36.1031 49.4519 36.5023 49.2848 36.9664C49.1178 37.4306 49.0342 37.9226 49.0342 38.4424V46.9365H45.8594V32.5384ZM71.4048 37.0221C71.5905 37.4863 71.7019 37.969 71.739 38.4703H64.3311C64.3496 37.9319 64.4518 37.4306 64.6374 36.9664C64.8417 36.5023 65.1016 36.1031 65.4172 35.7689C65.7514 35.4161 66.1413 35.1469 66.5869 34.9613C67.051 34.757 67.5616 34.6549 68.1186 34.6549C68.657 34.6549 69.1397 34.7663 69.5668 34.9891C70.0123 35.1933 70.3837 35.4718 70.6807 35.8246C70.9964 36.1588 71.2377 36.558 71.4048 37.0221ZM64.5539 42.1742C64.4053 41.6544 64.3311 41.116 64.3311 40.559H74.9138C75.0438 39.4821 74.9695 38.4424 74.691 37.4399C74.4311 36.4187 74.0041 35.5182 73.41 34.7385C72.8158 33.9587 72.0639 33.3367 71.1542 32.8726C70.263 32.3898 69.2511 32.1485 68.1186 32.1485C67.0418 32.1485 66.0763 32.3527 65.2223 32.7612C64.3682 33.1696 63.6348 33.7266 63.0222 34.4321C62.428 35.1191 61.9639 35.9267 61.6297 36.855C61.3141 37.7648 61.1562 38.7302 61.1562 39.7514C61.1562 40.8653 61.3048 41.8865 61.6018 42.8148C61.9175 43.7431 62.3723 44.5414 62.9665 45.2098C63.5791 45.8782 64.3218 46.3981 65.1944 46.7694C66.067 47.1407 67.0696 47.3264 68.2021 47.3264C68.9819 47.3264 69.7246 47.215 70.4301 46.9922C71.1542 46.788 71.804 46.4816 72.3795 46.0732C72.9551 45.6461 73.4471 45.1263 73.8556 44.5136C74.264 43.9009 74.5518 43.2047 74.7189 42.4249H71.7112C71.4327 43.2232 71.0056 43.8266 70.4301 44.2351C69.8731 44.625 69.1305 44.8199 68.2021 44.8199C67.5338 44.8199 66.9582 44.7085 66.4755 44.4857C65.9928 44.2444 65.5936 43.9288 65.278 43.5389C64.9623 43.149 64.721 42.6941 64.5539 42.1742ZM79.7217 42.3135C79.8145 43.2418 80.1673 43.8916 80.78 44.263C81.3927 44.6343 82.126 44.8199 82.9801 44.8199C83.2771 44.8199 83.6113 44.8014 83.9827 44.7642C84.3725 44.7085 84.7346 44.6157 85.0688 44.4857C85.403 44.3558 85.6722 44.1701 85.8764 43.9288C86.0992 43.6688 86.2013 43.3346 86.1828 42.9262C86.1642 42.5177 86.0157 42.1835 85.7372 41.9236C85.4587 41.6637 85.0966 41.4594 84.651 41.3109C84.224 41.1438 83.732 41.0046 83.175 40.8932C82.618 40.7818 82.0518 40.6611 81.4762 40.5311C80.8821 40.4012 80.3065 40.2434 79.7496 40.0577C79.2111 39.872 78.7191 39.6214 78.2735 39.3058C77.8465 38.9901 77.503 38.591 77.2431 38.1082C76.9832 37.607 76.8532 36.9943 76.8532 36.2702C76.8532 35.4904 77.0389 34.8406 77.4102 34.3207C77.8001 33.7823 78.2828 33.3553 78.8584 33.0397C79.4525 32.7055 80.1023 32.4734 80.8078 32.3434C81.5319 32.2135 82.2189 32.1485 82.8687 32.1485C83.6113 32.1485 84.3168 32.232 84.9852 32.3991C85.6722 32.5476 86.2849 32.7983 86.8233 33.1511C87.3803 33.5038 87.8352 33.968 88.1879 34.5435C88.5592 35.1005 88.7913 35.7782 88.8841 36.5765H85.5701C85.4215 35.8153 85.0688 35.3047 84.5118 35.0448C83.9734 34.7849 83.3514 34.6549 82.6459 34.6549C82.4231 34.6549 82.1539 34.6735 81.8383 34.7106C81.5412 34.7477 81.2534 34.822 80.9749 34.9334C80.715 35.0262 80.4922 35.1748 80.3065 35.379C80.1209 35.5647 80.028 35.8153 80.028 36.1309C80.028 36.5208 80.158 36.8365 80.4179 37.0778C80.6964 37.3192 81.0492 37.5234 81.4762 37.6905C81.9218 37.839 82.4231 37.969 82.9801 38.0804C83.5371 38.1918 84.1126 38.3125 84.7067 38.4424C85.2823 38.5724 85.8486 38.7302 86.4055 38.9159C86.9625 39.1015 87.4545 39.3522 87.8816 39.6678C88.3272 39.9834 88.6799 40.3826 88.9398 40.8653C89.2183 41.3481 89.3576 41.9422 89.3576 42.6477C89.3576 43.5017 89.1626 44.2258 88.7727 44.8199C88.3829 45.4141 87.8723 45.8968 87.241 46.2681C86.6283 46.6394 85.9414 46.9086 85.1802 47.0757C84.419 47.2428 83.667 47.3264 82.9244 47.3264C82.0146 47.3264 81.1699 47.2243 80.3901 47.02C79.6289 46.8158 78.9605 46.5095 78.3849 46.101C77.8279 45.674 77.3824 45.1541 77.0482 44.5414C76.7325 43.9102 76.5654 43.1675 76.5469 42.3135H79.7217ZM94.1592 42.3135C94.252 43.2418 94.6048 43.8916 95.2175 44.263C95.8302 44.6343 96.5635 44.8199 97.4176 44.8199C97.7146 44.8199 98.0488 44.8014 98.4202 44.7642C98.8101 44.7085 99.1721 44.6157 99.5063 44.4857C99.8405 44.3558 100.11 44.1701 100.314 43.9288C100.537 43.6688 100.639 43.3346 100.62 42.9262C100.602 42.5177 100.453 42.1835 100.175 41.9236C99.8962 41.6637 99.5341 41.4594 99.0885 41.3109C98.6615 41.1438 98.1695 41.0046 97.6125 40.8932C97.0555 40.7818 96.4893 40.6611 95.9137 40.5311C95.3196 40.4012 94.744 40.2434 94.187 40.0577C93.6486 39.872 93.1566 39.6214 92.711 39.3058C92.284 38.9901 91.9405 38.591 91.6806 38.1082C91.4207 37.607 91.2907 36.9943 91.2907 36.2702C91.2907 35.4904 91.4764 34.8406 91.8477 34.3207C92.2376 33.7823 92.7203 33.3553 93.2959 33.0397C93.89 32.7055 94.5398 32.4734 95.2453 32.3434C95.9694 32.2135 96.6564 32.1485 97.3062 32.1485C98.0488 32.1485 98.7543 32.232 99.4227 32.3991C100.11 32.5476 100.722 32.7983 101.261 33.1511C101.818 33.5038 102.273 33.968 102.625 34.5435C102.997 35.1005 103.229 35.7782 103.322 36.5765H100.008C99.859 35.8153 99.5063 35.3047 98.9493 35.0448C98.4109 34.7849 97.7889 34.6549 97.0834 34.6549C96.8606 34.6549 96.5914 34.6735 96.2758 34.7106C95.9787 34.7477 95.6909 34.822 95.4124 34.9334C95.1525 35.0262 94.9297 35.1748 94.744 35.379C94.5584 35.5647 94.4655 35.8153 94.4655 36.1309C94.4655 36.5208 94.5955 36.8365 94.8554 37.0778C95.1339 37.3192 95.4867 37.5234 95.9137 37.6905C96.3593 37.839 96.8606 37.969 97.4176 38.0804C97.9746 38.1918 98.5501 38.3125 99.1442 38.4424C99.7198 38.5724 100.286 38.7302 100.843 38.9159C101.4 39.1015 101.892 39.3522 102.319 39.6678C102.765 39.9834 103.117 40.3826 103.377 40.8653C103.656 41.3481 103.795 41.9422 103.795 42.6477C103.795 43.5017 103.6 44.2258 103.21 44.8199C102.82 45.4141 102.31 45.8968 101.679 46.2681C101.066 46.6394 100.379 46.9086 99.6177 47.0757C98.8565 47.2428 98.1045 47.3264 97.3619 47.3264C96.4521 47.3264 95.6074 47.2243 94.8276 47.02C94.0664 46.8158 93.398 46.5095 92.8224 46.101C92.2654 45.674 91.8199 45.1541 91.4857 44.5414C91.17 43.9102 91.0029 43.1675 90.9844 42.3135H94.1592ZM27.0967 42.3135C27.1895 43.2418 27.5423 43.8916 28.155 44.263C28.7677 44.6343 29.501 44.8199 30.3551 44.8199C30.6521 44.8199 30.9863 44.8014 31.3577 44.7642C31.7475 44.7085 32.1096 44.6157 32.4438 44.4857C32.778 44.3558 33.0472 44.1701 33.2514 43.9288C33.4742 43.6688 33.5763 43.3346 33.5578 42.9262C33.5392 42.5177 33.3907 42.1835 33.1122 41.9236C32.8337 41.6637 32.4716 41.4594 32.026 41.3109C31.599 41.1438 31.107 41.0046 30.55 40.8932C29.993 40.7818 29.4268 40.6611 28.8512 40.5311C28.2571 40.4012 27.6815 40.2434 27.1246 40.0577C26.5861 39.872 26.0941 39.6214 25.6485 39.3058C25.2215 38.9901 24.878 38.591 24.6181 38.1082C24.3582 37.607 24.2282 36.9943 24.2282 36.2702C24.2282 35.4904 24.4139 34.8406 24.7852 34.3207C25.1751 33.7823 25.6578 33.3553 26.2334 33.0397C26.8275 32.7055 27.4773 32.4734 28.1828 32.3434C28.9069 32.2135 29.5939 32.1485 30.2437 32.1485C30.9863 32.1485 31.6919 32.232 32.3602 32.3991C33.0472 32.5476 33.6599 32.7983 34.1983 33.1511C34.7553 33.5038 35.2102 33.968 35.5629 34.5435C35.9342 35.1005 36.1663 35.7782 36.2591 36.5765H32.9451C32.7965 35.8153 32.4438 35.3047 31.8868 35.0448C31.3484 34.7849 30.7264 34.6549 30.0209 34.6549C29.7981 34.6549 29.5289 34.6735 29.2133 34.7106C28.9162 34.7477 28.6284 34.822 28.3499 34.9334C28.09 35.0262 27.8672 35.1748 27.6815 35.379C27.4959 35.5647 27.403 35.8153 27.403 36.1309C27.403 36.5208 27.533 36.8365 27.7929 37.0778C28.0714 37.3192 28.4242 37.5234 28.8512 37.6905C29.2968 37.839 29.7981 37.969 30.3551 38.0804C30.9121 38.1918 31.4876 38.3125 32.0817 38.4424C32.6573 38.5724 33.2236 38.7302 33.7806 38.9159C34.3375 39.1015 34.8295 39.3522 35.2566 39.6678C35.7022 39.9834 36.0549 40.3826 36.3148 40.8653C36.5933 41.3481 36.7326 41.9422 36.7326 42.6477C36.7326 43.5017 36.5376 44.2258 36.1477 44.8199C35.7579 45.4141 35.2473 45.8968 34.616 46.2681C34.0033 46.6394 33.3164 46.9086 32.5552 47.0757C31.794 47.2428 31.042 47.3264 30.2994 47.3264C29.3896 47.3264 28.5449 47.2243 27.7651 47.02C27.0039 46.8158 26.3355 46.5095 25.7599 46.101C25.2029 45.674 24.7574 45.1541 24.4232 44.5414C24.1075 43.9102 23.9404 43.1675 23.9219 42.3135H27.0967Z" fill="url(#paint1_linear_14618_7779)"/>
    <defs>
        <linearGradient id="paint0_linear_14618_7779" x1="51.5509" y1="9.95572" x2="51.5509" y2="46.9432" gradientUnits="userSpaceOnUse">
            <stop stop-color="#6CB3CD"/>
            <stop offset="1" stop-color="#037AB1"/>
        </linearGradient>
        <linearGradient id="paint1_linear_14618_7779" x1="51.5585" y1="23.8756" x2="51.5585" y2="46.9367" gradientUnits="userSpaceOnUse">
            <stop stop-color="#6CB3CD"/>
            <stop offset="1" stop-color="#037AB1"/>
        </linearGradient>
    </defs>
</svg> 